<?xml version="1.0" encoding="utf-8"?>
<!-- Generator: Adobe Illustrator 27.5.0, SVG Export Plug-In . SVG Version: 6.00 Build 0)  -->
<svg version="1.1" id="Layer_1" xmlns="http://www.w3.org/2000/svg" xmlns:xlink="http://www.w3.org/1999/xlink" x="0px" y="0px"
	 viewBox="0 0 900 900" style="enable-background:new 0 0 900 900;" xml:space="preserve">
<path style="fill:#FF4E62;" d="M553.574,274.302c-1-7.333,6.104-12.875,17.688-12.875c5.583,0,3.146,3.042,3.146,3.042
	s-7.5,3.583-7.833,4.083c-0.333,0.5-3.667,2.167-4.083,2.333C562.074,271.052,553.574,274.302,553.574,274.302z"/>
<g>
	<path style="fill:#B2C5CE;" d="M206.863,806.552c0,7.15,6.75,13,15,13h485.999c8.25,0,15-5.85,15-13c0-7.15-6.75-13-15-13H221.863
		C213.613,793.552,206.863,799.402,206.863,806.552z"/>
	<g>
		<g>
			<path style="fill:#FFEFCC;" d="M693.355,585.49l-21.993-0.555c0.001-0.043,0.109-4.477,0.223-18.139l21.999,0.184
				C693.469,580.904,693.36,585.309,693.355,585.49z"/>
		</g>
		<g>
			<path style="fill:#FFB287;" d="M693.585,566.979l-21.999-0.184c0.08-9.604,0.162-37.968,0.217-52.766l0.027-18.273l22-2.915
				l-0.027,21.269C693.748,528.929,693.665,557.324,693.585,566.979z"/>
		</g>
		<g>
			<path style="fill:#F58D6C;" d="M693.83,508.842l-22,2.916c0.089-23.174-0.038-36.429-0.16-39.273l21.98-0.942
				C693.844,476.083,693.903,489.629,693.83,508.842z"/>
		</g>
		<path style="fill:#CE284F;" d="M693.45,576.844c0.5,4.917,13.034,11.983,16.404,13.192c11.466,4.117,16.404,4.925,20.824,9.021
			c3.83,3.548,1.947,9.052-3.066,11.289c-3.446,1.538-9.58,1.4-18.002,0.957c-21.174-1.112-38.55-4.352-40.66-6.563
			c-4.425-4.636,2.167-21.708,2.375-28.25L693.45,576.844z"/>
		<path style="fill:#6B4538;" d="M732.325,605.219c-0.305,2.381-1.934,3.047-5.044,4.058c-3.629,1.179-9.776,0.165-18.266-0.33
			c-25.357-1.477-38.894-4.163-41.021-6.392c-0.533-0.559-0.458-0.35-0.458-0.35s-0.276,2.076-0.212,3.732
			c-0.041,1.248,0.025,2.566,0.437,2.997c2.231,2.334,8.398,3.75,41.021,6.392c9.947,0.805,15.375,0.918,19.044-0.142
			c3.204-0.926,5.264-1.683,5.016-5.668C732.912,608.424,732.759,607.038,732.325,605.219z"/>
		<path style="fill:#FFEFCC;" d="M671.481,576.49c0,0.354,0.711,6.555,6.972,6.854c6.972,0.333,9.44-6.708,9.44-6.708l-8.811-1.625
			L671.481,576.49z"/>
		<g>
			<path style="fill:#8FA3C1;" d="M232.15,607.531c-2.278,0-4.337-1.567-4.869-3.881l-44.828-195.073
				c-0.618-2.691,1.062-5.375,3.753-5.993c2.692-0.618,5.374,1.062,5.993,3.753l44.828,195.073c0.618,2.691-1.062,5.375-3.753,5.993
				C232.898,607.49,232.521,607.531,232.15,607.531z"/>
		</g>
		<g>
			<path style="fill:#8BA8AF;" d="M597.488,529.286c-1.191,0-2.369-0.529-3.158-1.542l-36.12-46.365
				c-1.358-1.743-1.045-4.256,0.697-5.614c1.742-1.357,4.256-1.046,5.614,0.697l36.12,46.365c1.358,1.743,1.045,4.256-0.697,5.614
				C599.213,529.01,598.347,529.286,597.488,529.286z"/>
		</g>
		<path style="fill:#FFB287;" d="M677.379,339.802c0-10.819,8.77-22.5,19.589-22.5c4.927,0,5.828,0,9.191,0
			c13.213,0,13.5,9.011,13.5,16.583c0,10.818-1.515,17-12.333,17C696.507,350.885,677.379,350.621,677.379,339.802z"/>
		<g>
			<path style="fill:#FFB287;" d="M656.334,371.374c-6.672,0-13.318-1.16-19.75-3.541c-22.671-8.392-36.755-29.477-36.755-55.027h18
				c0,17.821,9.581,32.438,25.004,38.147c6.677,2.471,30.241,8.458,53.161-18.261l13.662,11.72
				C694.642,361.912,675.388,371.374,656.334,371.374z"/>
		</g>
		<circle style="fill:#414042;" cx="698.325" cy="341.552" r="15.5"/>
		<g>
			<path style="fill:#FFEFCC;" d="M664.355,585.49l-21.993-0.555c0.001-0.043,0.109-4.477,0.223-18.139l21.999,0.184
				C664.469,580.904,664.36,585.309,664.355,585.49z"/>
		</g>
		<g>
			<path style="fill:#FFB287;" d="M664.585,566.979l-21.999-0.184c0.091-10.949,0.187-50.151,0.238-64.227l0.01-2.725l22-2.92
				l-0.01,2.725C664.772,513.743,664.677,555.978,664.585,566.979z"/>
			<g>
				<path style="fill:#F58D6C;" d="M664.83,508.842l-22,2.916c0.089-23.174-0.038-36.429-0.16-39.273l21.98-0.942
					C664.844,476.083,664.903,489.629,664.83,508.842z"/>
			</g>
		</g>
		<path style="fill:#FF4E62;" d="M701.491,480.552l-14.707,1.99l-11.7,1.41l-0.07,0.01v3.75l-36.87,5.51c0,0,0.43-19.17-1.74-23.75
			c-7.2-0.39-17.33,1.03-25.77,1.03l-4.69,0.01c-21.25,0-37.87,6.96-50.42-5.73c-12.35-12.49-12.16-28.46-11.95-46.95
			c0.01-1.33,0.03-2.71,0.05-4.14v-1.47c0.01-1.28,0.02-2.61,0.02-3.97h50c0,3.66-0.039,7.04-0.08,10.15
			c-0.02,2.06-0.05,4.29-0.05,6.41v1.06c0,0.77,0.01,1.51,0.02,2.22c3.08,0.23,7.65,0.42,14.41,0.42l1.73-3.09l0.56-1l2.35-4.21
			c3.18,0,6.76-0.07,10.54-0.17c15.07-0.4,31.06,7.13,39.7,8.51c32.43,5.19,26.96,23.27,28,30
			C692.514,469.592,701.491,480.552,701.491,480.552z"/>
		<path style="fill:#E23757;" d="M703.324,490.553l-16.54,1.99l-11.7,1.41c-0.32-5.64-1.01-25.371-2.18-32.981
			c-1.07-6.98-3.67-29.51-37.26-34.89c-5.75-0.92-15.55-0.9-25.97-0.66c-5.38,0.13-10.93,0.31-16.16,0.45
			c-0.88,0.03-1.76,0.05-2.62,0.07l0.62-1.12c0.65,0,1.32,0,2-0.01c5.01-0.04,10.79-0.21,16.72-0.39c3.4-0.1,7.91-1.83,12.89-4.38
			c15.07-0.4,33.25-1.21,41.89,0.17c32.43,5.19,34.94,26.94,35.98,33.67C702.684,464.922,703.324,490.553,703.324,490.553z"/>
		<path style="fill:#CE284F;" d="M626.324,463.658c3.157,0.631,9.417,4.561,9.417,4.561s4.667-24.167,20.083-37.833
			c9.789-8.678,21.05-7.037,20.318-7.329c-9.597-3.829-26.459-4.854-30.878-4.223C640.845,419.465,626.324,463.658,626.324,463.658z
			"/>
		<path style="fill:#FFCB57;" d="M543.276,429.401V288.852c0-13.706,11.214-24.92,24.92-24.92h42.534
			c13.706,0,24.92,11.214,24.92,24.92v140.549H543.276z"/>
		<g>
			<path style="fill:#FF4E62;" d="M630.324,316.052c-3.038,0-5.5-2.462-5.5-5.5v-13.333c0-22.832-11-32.5-26.833-32.5
				c-3.038,0-5.5-2.462-5.5-5.5s2.462,2.583,5.5,2.583c13.578,0,37.833,6.453,37.833,35.417v13.333
				C635.824,313.59,633.362,316.052,630.324,316.052z"/>
		</g>
		<g>
			<path style="fill:#FFB287;" d="M615.07,414.303c-0.944,0-1.901-0.223-2.793-0.694l-13.75-7.25
				c-2.931-1.546-4.055-5.175-2.509-8.106c1.545-2.931,5.175-4.055,8.106-2.509l13.75,7.25c2.931,1.545,4.055,5.175,2.509,8.106
				C619.308,413.139,617.225,414.303,615.07,414.303z"/>
		</g>
		<polygon style="fill:#F78E1C;" points="620.195,415.581 543.276,415.581 543.276,328.807 574.36,328.807 574.36,390.219 		"/>
		<path style="fill:#FF4E62;" d="M635.727,424.638c0,4.78-3.68,10.015-8.177,11.633l-27.792,10.004
			c-4.497,1.619-8.177-0.967-8.177-5.747V306.011c0-4.78,3.911-8.69,8.69-8.69h26.765c4.78,0,8.69,3.911,8.69,8.69V424.638z"/>
		<g>
			<path style="fill:#FFB287;" d="M583.178,264.411c8.68,4.969,10.081,9.575,19.539,9.575c6.857,0,5.899-6.642,5.899-12.118v-25.089
				c0-11.957-6.996-21.74-15.547-21.74h-2.928c-8.551,0-15.548,9.783-15.548,21.74v25.398
				C576.994,262.509,579.456,262.281,583.178,264.411z"/>
			<g>
				<path style="fill:#F58D6C;" d="M574.504,250.802c0,5.662,12.149,9.771,18.445,10.5c11.875,1.375,15.644,1.71,15.644-4.75
					l0.001-29.625l-34.089-2.573L574.504,250.802z"/>
			</g>
		</g>
		<path style="fill:#CE284F;" d="M634.074,417.55c-4.595-0.052-16.429-0.048-21.488-0.044l-4.641,0.003
			c-6.764,0-11.333-0.183-14.412-0.418c-0.026-1.832-1.02,0.131-1.003-1.898c-18.776-0.182-39.196-0.409-49.997-0.625
			c0,27.65,0.125,41.317,12.993,50.215c3.011,2.082,5.407,4.71,8.462,6.424l58.837-8.405c0,0,6.882-9-0.001-9
			c-13,0-41.22-2.23-45.75-5.25c-4.5-3-2.25-12.417-2.25-12.417s58.75-10.833,64.75-11.333L634.074,417.55z"/>
		<g>
			<g>
				
					<rect x="445.449" y="351.032" transform="matrix(0.3433 -0.9392 0.9392 0.3433 -96.9153 696.3516)" style="fill:#70767F;" width="8.178" height="132.905"/>
				<path style="fill:#FBB06B;" d="M471.63,431.742c-3.095,8.731-9.681,10.821-16.086,8.552c-6.404-2.272-10.202-8.043-7.105-16.775
					c3.094-8.73,11.507-15.972,17.911-13.7C472.755,412.089,474.726,423.012,471.63,431.742z"/>
				<path style="fill:#FBB06B;" d="M501.413,442.63c-3.096,8.731-9.68,10.823-16.084,8.549c-6.405-2.27-10.205-8.041-7.109-16.772
					c3.096-8.731,11.51-15.97,17.912-13.702C502.537,422.977,504.51,433.9,501.413,442.63z"/>
				<polygon style="fill:#BCB8C9;" points="457.779,453.592 445.012,448.927 448.361,428.935 468.116,436.156 				"/>
				<polygon style="fill:#BCBEC0;" points="487.56,464.481 474.797,459.811 478.143,439.824 497.898,447.044 				"/>
				<path style="fill:#FBB06B;" d="M413.882,410.631c-3.094,8.732-9.683,10.823-16.083,8.553
					c-6.405-2.273-10.202-8.043-7.107-16.772c3.095-8.734,11.506-15.975,17.912-13.705
					C415.007,390.978,416.98,401.901,413.882,410.631z"/>
				<path style="fill:#FBB06B;" d="M442.795,421.2c-3.096,8.73-9.684,10.82-16.09,8.552c-6.402-2.274-10.199-8.042-7.104-16.775
					c3.093-8.731,11.506-15.971,17.911-13.702C443.918,401.546,445.889,412.469,442.795,421.2z"/>
				<polygon style="fill:#BCBEC0;" points="400.033,432.482 387.267,427.816 390.612,407.824 410.368,415.047 				"/>
				<polygon style="fill:#BCBEC0;" points="428.942,443.049 416.176,438.385 419.524,418.391 439.278,425.615 				"/>
				
					<rect x="435.878" y="366.601" transform="matrix(0.3433 -0.9392 0.9392 0.3433 -114.3834 698.8078)" style="fill:#BCB8C9;" width="13.352" height="129.207"/>
				
					<rect x="442.288" y="354.443" transform="matrix(0.3434 -0.9392 0.9392 0.3434 -105.1833 695.8613)" style="fill:#E6E7E8;" width="5.546" height="137.421"/>
				<path style="fill:#F9CBA5;" d="M404.607,397.044c-1.933,2.324-3.454,3.906-5.287,2.378c-1.835-1.529-1.267-3.428,0.67-5.752
					c1.933-2.326,4.571-3.264,6.407-1.737C408.231,393.459,406.54,394.718,404.607,397.044z"/>
				<path style="fill:#F9CBA5;" d="M433.379,407.563c-1.933,2.322-3.449,3.905-5.284,2.378c-1.836-1.529-1.267-3.429,0.667-5.755
					c1.935-2.323,4.575-3.262,6.408-1.734C437.007,403.977,435.316,405.236,433.379,407.563z"/>
				<path style="fill:#F9CBA5;" d="M462.828,418.328c-1.936,2.322-3.449,3.904-5.286,2.38c-1.834-1.53-1.264-3.43,0.671-5.754
					c1.933-2.324,4.571-3.266,6.407-1.739C466.454,414.743,464.766,416.004,462.828,418.328z"/>
				<path style="fill:#F9CBA5;" d="M491.6,428.847c-1.932,2.323-3.448,3.906-5.283,2.379c-1.838-1.529-1.267-3.428,0.668-5.755
					c1.933-2.323,4.575-3.263,6.408-1.736C495.229,425.264,493.538,426.522,491.6,428.847z"/>
				<g>
					<polygon style="fill:#E6E7E8;" points="479.125,395.206 466.357,390.541 456.022,407.975 475.779,415.197 					"/>
					<polygon style="fill:#E6E7E8;" points="508.906,406.093 496.141,401.427 485.806,418.864 505.561,426.086 					"/>
					<polygon style="fill:#E6E7E8;" points="421.377,374.096 408.612,369.429 398.276,386.864 418.032,394.087 					"/>
					<polygon style="fill:#E6E7E8;" points="450.288,384.666 437.521,379.999 427.185,397.434 446.941,404.655 					"/>
					
						<rect x="446.373" y="337.894" transform="matrix(0.3433 -0.9392 0.9392 0.3433 -80.5299 689.8141)" style="fill:#D1D3D4;" width="13.354" height="129.208"/>
					
						<rect x="447" y="341.556" transform="matrix(0.3434 -0.9392 0.9392 0.3434 -89.9821 691.831)" style="fill:#E6E7E8;" width="5.546" height="137.421"/>
				</g>
				
					<rect x="439.806" y="363.001" transform="matrix(0.3434 -0.9392 0.9392 0.3434 -111.6278 696.89)" style="fill:#70767F;" width="5.546" height="130.554"/>
			</g>
			<g>
				<polygon style="fill:#C4301C;" points="426.129,416.55 429.664,408.122 425.39,411.739 422.817,407.943 420.715,411.84 
					414.949,409.987 420.61,417.203 				"/>
				<polygon style="fill:#EF4323;" points="437.675,511.265 442.505,518.854 438.417,517.525 435.644,520.268 434.504,517.987 
					430.935,519.467 431.412,512.007 				"/>
				<g>
					<path style="fill:#EF4323;" d="M421.549,414.541c0.388-0.076,0.775-0.145,1.169-0.203
						C422.324,414.396,421.936,414.465,421.549,414.541z"/>
					<path style="fill:#EF4323;" d="M411.162,501.29c-0.086-0.186-0.179-0.372-0.262-0.563
						C410.983,500.918,411.076,501.103,411.162,501.29z"/>
					<path style="fill:#EF4323;" d="M410.686,500.219c-0.077-0.184-0.156-0.368-0.231-0.553
						C410.53,499.851,410.609,500.035,410.686,500.219z"/>
					<path style="fill:#EF4323;" d="M405.077,427.044c0.12-0.231,0.242-0.461,0.368-0.686
						C405.32,426.582,405.197,426.813,405.077,427.044z"/>
					<path style="fill:#EF4323;" d="M410.259,499.105c-0.066-0.178-0.131-0.354-0.19-0.535
						C410.128,498.751,410.193,498.926,410.259,499.105z"/>
					<path style="fill:#EF4323;" d="M417.106,415.887c0.352-0.147,0.708-0.285,1.071-0.415
						C417.814,415.602,417.457,415.74,417.106,415.887z"/>
					<path style="fill:#EF4323;" d="M418.178,415.473c1.085-0.392,2.213-0.701,3.371-0.932
						C420.39,414.772,419.263,415.083,418.178,415.473z"/>
					<path style="fill:#EF4323;" d="M402.535,438.095c-0.002-0.165,0.001-0.331,0.003-0.498
						C402.536,437.763,402.533,437.929,402.535,438.095z"/>
					<path style="fill:#EF4323;" d="M411.692,502.334c-0.102-0.19-0.207-0.38-0.302-0.57
						C411.485,501.954,411.589,502.145,411.692,502.334z"/>
					<path style="fill:#EF4323;" d="M429.948,514.645c-0.381-0.042-0.763-0.094-1.138-0.152
						C429.186,514.551,429.568,514.603,429.948,514.645z"/>
					<path style="fill:#EF4323;" d="M404.591,428.053c0.105-0.226,0.215-0.45,0.326-0.677
						C404.806,427.603,404.696,427.827,404.591,428.053z"/>
					<path style="fill:#EF4323;" d="M428.808,514.491c-0.375-0.061-0.747-0.126-1.116-0.204
						C428.061,514.366,428.434,514.431,428.808,514.491z"/>
					<path style="fill:#EF4323;" d="M402.609,435.746c0.017-0.188,0.04-0.376,0.061-0.564
						C402.649,435.37,402.626,435.558,402.609,435.746z"/>
					<path style="fill:#EF4323;" d="M433.445,514.764c-1.179,0.047-2.348,0.004-3.496-0.12
						C431.098,514.769,432.263,514.811,433.445,514.764z"/>
					<path style="fill:#EF4323;" d="M434.629,514.686c-0.395,0.036-0.789,0.064-1.184,0.078
						C433.84,514.75,434.234,514.722,434.629,514.686z"/>
					<path style="fill:#EF4323;" d="M416.066,416.346c0.343-0.16,0.688-0.313,1.038-0.46
						C416.754,416.034,416.408,416.186,416.066,416.346z"/>
					<path style="fill:#EF4323;" d="M409.291,495.531c-0.023-0.131-0.054-0.265-0.075-0.398
						C409.236,495.266,409.268,495.4,409.291,495.531z"/>
					<path style="fill:#EF4323;" d="M410.474,420.043c0.252-0.224,0.51-0.441,0.774-0.651
						C410.984,419.602,410.726,419.819,410.474,420.043z"/>
					<path style="fill:#EF4323;" d="M412.268,503.345c-0.116-0.192-0.232-0.38-0.344-0.577
						C412.036,502.964,412.152,503.153,412.268,503.345z"/>
					<path style="fill:#EF4323;" d="M406.18,425.105c0.149-0.238,0.304-0.471,0.466-0.702
						C406.484,424.634,406.329,424.867,406.18,425.105z"/>
					<path style="fill:#EF4323;" d="M408.888,421.595c0.218-0.236,0.443-0.462,0.669-0.686
						C409.331,421.134,409.106,421.36,408.888,421.595z"/>
					<path style="fill:#EF4323;" d="M409.662,420.802c0.236-0.232,0.478-0.455,0.724-0.676
						C410.14,420.347,409.898,420.569,409.662,420.802z"/>
					<path style="fill:#EF4323;" d="M402.583,439.289c-0.007-0.137-0.008-0.274-0.016-0.408
						C402.575,439.016,402.576,439.152,402.583,439.289z"/>
					<path style="fill:#EF4323;" d="M408.151,422.422c0.201-0.233,0.407-0.467,0.615-0.695
						C408.559,421.955,408.35,422.186,408.151,422.422z"/>
					<path style="fill:#EF4323;" d="M402.543,436.915c0.005-0.179,0.019-0.359,0.03-0.535
						C402.562,436.556,402.548,436.736,402.543,436.915z"/>
					<path style="fill:#EF4323;" d="M409.883,497.963c-0.051-0.171-0.107-0.34-0.154-0.515
						C409.776,497.624,409.832,497.792,409.883,497.963z"/>
					<path style="fill:#EF4323;" d="M414.074,417.409c0.313-0.186,0.633-0.367,0.957-0.541
						C414.707,417.042,414.386,417.221,414.074,417.409z"/>
					<path style="fill:#EF4323;" d="M415.055,416.857c0.327-0.178,0.657-0.344,0.999-0.502
						C415.713,416.513,415.382,416.679,415.055,416.857z"/>
					<path style="fill:#EF4323;" d="M409.564,496.787c-0.041-0.162-0.084-0.32-0.12-0.485
						C409.48,496.467,409.523,496.625,409.564,496.787z"/>
					<path style="fill:#EF4323;" d="M412.207,418.646c0.285-0.209,0.573-0.412,0.87-0.608
						C412.78,418.234,412.492,418.437,412.207,418.646z"/>
					<path style="fill:#EF4323;" d="M413.124,418.006c0.298-0.197,0.606-0.391,0.917-0.574
						C413.729,417.615,413.422,417.809,413.124,418.006z"/>
					<path style="fill:#EF4323;" d="M405.607,426.063c0.133-0.238,0.273-0.469,0.415-0.698
						C405.88,425.594,405.74,425.825,405.607,426.063z"/>
					<path style="fill:#EF4323;" d="M411.325,419.326c0.268-0.219,0.542-0.428,0.819-0.634
						C411.867,418.898,411.593,419.107,411.325,419.326z"/>
					<path style="fill:#EF4323;" d="M416.646,508.657c-0.21-0.186-0.415-0.38-0.618-0.575
						C416.232,508.276,416.436,508.469,416.646,508.657z"/>
					<path style="fill:#EF4323;" d="M421.039,494.936c1.037,8.744,6.348,15.936,13.594,19.753c0.226-0.022,0.455-0.036,0.682-0.066
						c12.97-1.535,22.24-13.287,20.699-26.248l-0.6-5.05l-35.261,4.177L421.039,494.936z"/>
					<path style="fill:#EF4323;" d="M403.147,432.331c0.046-0.211,0.106-0.415,0.159-0.624
						C403.253,431.916,403.194,432.12,403.147,432.331z"/>
					<path style="fill:#EF4323;" d="M418.408,510.104c-0.241-0.177-0.48-0.362-0.714-0.549
						C417.928,509.742,418.167,509.927,418.408,510.104z"/>
					<path style="fill:#EF4323;" d="M415.023,507.041c-0.174-0.194-0.347-0.388-0.52-0.583
						C414.676,506.654,414.849,506.847,415.023,507.041z"/>
					<path style="fill:#EF4323;" d="M419.338,510.763c-0.26-0.173-0.514-0.351-0.764-0.531
						C418.824,510.415,419.078,510.59,419.338,510.763z"/>
					<path style="fill:#EF4323;" d="M427.68,514.284c-0.366-0.076-0.729-0.16-1.089-0.254
						C426.951,514.124,427.313,514.207,427.68,514.284z"/>
					<path style="fill:#EF4323;" d="M415.817,507.871c-0.192-0.191-0.384-0.384-0.57-0.583
						C415.434,507.487,415.625,507.679,415.817,507.871z"/>
					<path style="fill:#EF4323;" d="M402.914,433.454c0.037-0.202,0.081-0.404,0.124-0.607
						C402.996,433.051,402.951,433.252,402.914,433.454z"/>
					<path style="fill:#EF4323;" d="M407.452,423.285c0.184-0.238,0.375-0.472,0.567-0.703
						C407.827,422.813,407.636,423.046,407.452,423.285z"/>
					<path style="fill:#EF4323;" d="M403.434,431.23c0.062-0.213,0.129-0.427,0.197-0.639
						C403.563,430.803,403.496,431.017,403.434,431.23z"/>
					<path style="fill:#EF4323;" d="M414.127,436.716l0.883,7.435l35.26-4.175l-0.599-5.048
						c-1.538-12.961-13.303-22.224-26.274-20.689c-0.228,0.026-0.452,0.065-0.675,0.098
						C416.569,419.742,413.09,427.976,414.127,436.716z"/>
					<path style="fill:#EF4323;" d="M420.295,511.375c-0.272-0.165-0.541-0.334-0.81-0.511
						C419.754,511.041,420.024,511.21,420.295,511.375z"/>
					<path style="fill:#EF4323;" d="M417.509,509.403c-0.224-0.183-0.447-0.375-0.665-0.565
						C417.062,509.032,417.285,509.22,417.509,509.403z"/>
					<path style="fill:#EF4323;" d="M412.892,504.323c-0.13-0.194-0.262-0.384-0.383-0.581
						C412.63,503.939,412.761,504.128,412.892,504.323z"/>
					<path style="fill:#EF4323;" d="M425.466,513.71c-0.344-0.109-0.684-0.224-1.024-0.346
						C424.782,513.486,425.122,513.602,425.466,513.71z"/>
					<path style="fill:#EF4323;" d="M403.772,430.149c0.073-0.222,0.155-0.438,0.237-0.655
						C403.927,429.711,403.845,429.927,403.772,430.149z"/>
					<path style="fill:#EF4323;" d="M404.159,429.089c0.089-0.223,0.183-0.448,0.277-0.669
						C404.342,428.641,404.247,428.863,404.159,429.089z"/>
					<path style="fill:#EF4323;" d="M406.796,424.182c0.167-0.241,0.336-0.475,0.515-0.707
						C407.134,423.708,406.96,423.939,406.796,424.182z"/>
					<path style="fill:#EF4323;" d="M426.564,514.022c-0.357-0.092-0.709-0.191-1.058-0.301
						C425.855,513.831,426.208,513.93,426.564,514.022z"/>
					<path style="fill:#EF4323;" d="M424.391,513.341c-0.335-0.119-0.663-0.251-0.988-0.386
						C423.728,513.09,424.056,513.223,424.391,513.341z"/>
					<path style="fill:#EF4323;" d="M413.56,505.268c-0.146-0.195-0.291-0.392-0.43-0.587
						C413.27,504.876,413.414,505.073,413.56,505.268z"/>
					<path style="fill:#EF4323;" d="M414.269,506.168c-0.159-0.19-0.317-0.382-0.472-0.581
						C413.952,505.786,414.11,505.978,414.269,506.168z"/>
					<path style="fill:#EF4323;" d="M421.285,511.943c-0.291-0.157-0.578-0.321-0.86-0.491
						C420.707,511.622,420.995,511.786,421.285,511.943z"/>
					<path style="fill:#EF4323;" d="M422.295,512.455c-0.305-0.147-0.607-0.297-0.904-0.455
						C421.688,512.159,421.99,512.308,422.295,512.455z"/>
					<path style="fill:#EF4323;" d="M402.735,434.594c0.025-0.201,0.058-0.4,0.091-0.595
						C402.793,434.194,402.761,434.394,402.735,434.594z"/>
					<path style="fill:#EF4323;" d="M423.33,512.925c-0.315-0.136-0.63-0.276-0.946-0.425
						C422.7,512.648,423.013,512.789,423.33,512.925z"/>
					
						<rect x="415.064" y="442.053" transform="matrix(0.9931 -0.1176 0.1176 0.9931 -49.1503 53.9668)" style="fill:#3C2415;" width="35.507" height="3.003"/>
					
						<rect x="419.838" y="482.131" transform="matrix(0.9931 -0.1176 0.1176 0.9931 -53.8712 54.8354)" style="fill:#3C2415;" width="35.507" height="3.294"/>
					<polygon style="fill:#3C2415;" points="417.793,481.661 454.656,476.925 450.994,446.086 413.764,450.497 					"/>
					
						<rect x="415.427" y="445.034" transform="matrix(0.9931 -0.1176 0.1176 0.9931 -49.5321 54.0613)" style="fill:#8B5E3C;" width="35.506" height="3.151"/>
					
						<rect x="419.46" y="479.002" transform="matrix(0.9931 -0.1176 0.1176 0.9931 -53.4924 54.7628)" style="fill:#8B5E3C;" width="35.506" height="3.151"/>
					<path style="fill:#EF4323;" d="M402.573,436.38c0.012-0.209,0.02-0.423,0.036-0.633
						C402.592,435.957,402.585,436.171,402.573,436.38z"/>
					<path style="fill:#EF4323;" d="M402.826,434c0.028-0.182,0.054-0.366,0.088-0.545C402.881,433.634,402.854,433.817,402.826,434
						z"/>
					<path style="fill:#EF4323;" d="M402.538,437.597c-0.001-0.227-0.004-0.456,0.005-0.681
						C402.533,437.142,402.537,437.369,402.538,437.597z"/>
					<path style="fill:#EF4323;" d="M402.67,435.183c0.02-0.196,0.037-0.397,0.065-0.589
						C402.707,434.786,402.69,434.987,402.67,435.183z"/>
					<path style="fill:#EF4323;" d="M413.797,505.587c-0.081-0.106-0.158-0.214-0.237-0.319
						C413.639,505.373,413.716,505.481,413.797,505.587z"/>
					<path style="fill:#EF4323;" d="M412.509,503.742c-0.083-0.131-0.164-0.263-0.241-0.397
						C412.345,503.479,412.426,503.611,412.509,503.742z"/>
					<path style="fill:#EF4323;" d="M414.503,506.458c-0.078-0.095-0.155-0.193-0.234-0.29
						C414.348,506.265,414.425,506.362,414.503,506.458z"/>
					<path style="fill:#EF4323;" d="M403.038,432.847c0.036-0.173,0.068-0.345,0.109-0.516
						C403.107,432.502,403.075,432.674,403.038,432.847z"/>
					<path style="fill:#EF4323;" d="M413.13,504.681c-0.083-0.118-0.16-0.239-0.239-0.358
						C412.97,504.442,413.047,504.563,413.13,504.681z"/>
					<path style="fill:#EF4323;" d="M402.568,438.881c-0.014-0.261-0.028-0.523-0.033-0.786
						C402.54,438.358,402.554,438.621,402.568,438.881z"/>
					<path style="fill:#EF4323;" d="M416.028,508.082c-0.07-0.069-0.142-0.141-0.211-0.211
						C415.886,507.94,415.958,508.013,416.028,508.082z"/>
					<path style="fill:#EF4323;" d="M417.694,509.555c-0.063-0.049-0.123-0.103-0.185-0.152
						C417.571,509.452,417.631,509.506,417.694,509.555z"/>
					<path style="fill:#EF4323;" d="M416.844,508.838c-0.066-0.061-0.133-0.123-0.198-0.181
						C416.711,508.715,416.778,508.777,416.844,508.838z"/>
					<path style="fill:#EF4323;" d="M415.247,507.288c-0.076-0.082-0.149-0.166-0.225-0.247
						C415.099,507.122,415.171,507.206,415.247,507.288z"/>
					<path style="fill:#EF4323;" d="M411.924,502.768c-0.08-0.144-0.156-0.288-0.233-0.434
						C411.769,502.48,411.845,502.624,411.924,502.768z"/>
					<path style="fill:#EF4323;" d="M409.729,497.448c-0.061-0.218-0.112-0.44-0.165-0.661
						C409.617,497.008,409.668,497.23,409.729,497.448z"/>
					<path style="fill:#EF4323;" d="M409.216,495.133c-0.069-0.397-0.128-0.793-0.174-1.193
						C409.088,494.341,409.147,494.736,409.216,495.133z"/>
					<path style="fill:#EF4323;" d="M402.695,440.489c-0.047-0.401-0.084-0.801-0.112-1.199
						C402.612,439.688,402.648,440.088,402.695,440.489z"/>
					<path style="fill:#EF4323;" d="M410.069,498.569c-0.069-0.201-0.124-0.403-0.186-0.606
						C409.944,498.166,410,498.369,410.069,498.569z"/>
					<path style="fill:#EF4323;" d="M410.456,499.666c-0.068-0.185-0.131-0.374-0.197-0.561
						C410.324,499.292,410.388,499.481,410.456,499.666z"/>
					<path style="fill:#EF4323;" d="M411.39,501.764c-0.078-0.156-0.151-0.315-0.228-0.475
						C411.239,501.45,411.312,501.609,411.39,501.764z"/>
					<path style="fill:#EF4323;" d="M410.9,500.727c-0.074-0.164-0.143-0.339-0.214-0.508
						C410.758,500.387,410.826,500.562,410.9,500.727z"/>
					<path style="fill:#EF4323;" d="M409.444,496.302c-0.055-0.254-0.103-0.511-0.153-0.771
						C409.34,495.791,409.388,496.048,409.444,496.302z"/>
					<path style="fill:#EF4323;" d="M429.949,514.644c0,0,0,0-0.001,0.001C429.949,514.644,429.949,514.644,429.949,514.644z"/>
					<path style="fill:#EF4323;" d="M426.591,514.03c-0.009-0.001-0.018-0.002-0.027-0.008
						C426.573,514.026,426.582,514.029,426.591,514.03z"/>
					<path style="fill:#EF4323;" d="M428.811,514.493c0-0.003-0.001-0.001-0.001-0.001S428.81,514.49,428.811,514.493z"/>
					<path style="fill:#EF4323;" d="M427.693,514.287c-0.006-0.001-0.01-0.001-0.013-0.003
						C427.683,514.286,427.687,514.286,427.693,514.287z"/>
					<path style="fill:#EF4323;" d="M433.445,514.764L433.445,514.764L433.445,514.764z"/>
					<path style="fill:#EF4323;" d="M421.549,414.541L421.549,414.541L421.549,414.541z"/>
					<path style="fill:#EF4323;" d="M418.177,415.472l0.001,0.001L418.177,415.472z"/>
					<polygon style="fill:#EF4323;" points="422.722,414.337 422.718,414.338 422.722,414.337 					"/>
					<polygon style="fill:#EF4323;" points="434.634,514.689 434.634,514.689 434.629,514.686 					"/>
					<path style="fill:#EF4323;" d="M417.103,415.886c0,0,0,0,0.002,0.001C417.103,415.886,417.103,415.886,417.103,415.886z"/>
					<path style="fill:#EF4323;" d="M420.426,511.453c-0.043-0.025-0.086-0.05-0.13-0.077
						C420.339,511.402,420.382,511.428,420.426,511.453z"/>
					<path style="fill:#EF4323;" d="M419.485,510.864c-0.051-0.033-0.097-0.065-0.147-0.101
						C419.388,510.799,419.434,510.831,419.485,510.864z"/>
					<path style="fill:#EF4323;" d="M425.506,513.721c-0.013-0.003-0.027-0.006-0.04-0.011
						C425.479,513.715,425.493,513.718,425.506,513.721z"/>
					<path style="fill:#EF4323;" d="M403.307,431.707c0.043-0.156,0.083-0.318,0.127-0.477
						C403.389,431.389,403.35,431.551,403.307,431.707z"/>
					<path style="fill:#EF4323;" d="M418.408,510.104c0.056,0.046,0.109,0.083,0.166,0.128
						C418.518,510.187,418.465,510.15,418.408,510.104z"/>
					<path style="fill:#EF4323;" d="M423.403,512.956c-0.024-0.009-0.048-0.023-0.073-0.031
						C423.355,512.932,423.379,512.947,423.403,512.956z"/>
					<path style="fill:#EF4323;" d="M421.39,512c-0.035-0.021-0.072-0.038-0.105-0.057C421.319,511.962,421.355,511.979,421.39,512z
						"/>
					<path style="fill:#EF4323;" d="M424.443,513.364c-0.017-0.009-0.036-0.016-0.052-0.023
						C424.407,513.348,424.426,513.355,424.443,513.364z"/>
					<path style="fill:#EF4323;" d="M422.384,512.499c-0.03-0.014-0.06-0.03-0.089-0.044
						C422.324,512.469,422.354,512.485,422.384,512.499z"/>
					<path style="fill:#EF4323;" d="M406.022,425.365c0.053-0.087,0.104-0.175,0.158-0.26
						C406.126,425.19,406.075,425.278,406.022,425.365z"/>
					<path style="fill:#EF4323;" d="M405.445,426.357c0.054-0.1,0.106-0.201,0.162-0.295
						C405.551,426.157,405.499,426.258,405.445,426.357z"/>
					<path style="fill:#EF4323;" d="M406.645,424.403c0.051-0.074,0.099-0.148,0.15-0.22
						C406.744,424.254,406.696,424.328,406.645,424.403z"/>
					<path style="fill:#EF4323;" d="M403.632,430.591c0.046-0.147,0.09-0.294,0.14-0.443
						C403.721,430.297,403.677,430.444,403.632,430.591z"/>
					<path style="fill:#EF4323;" d="M408.019,422.582c0.044-0.05,0.088-0.107,0.132-0.16
						C408.106,422.474,408.063,422.532,408.019,422.582z"/>
					<path style="fill:#EF4323;" d="M407.31,423.476c0.046-0.063,0.094-0.127,0.142-0.191
						C407.404,423.349,407.357,423.413,407.31,423.476z"/>
					<path style="fill:#EF4323;" d="M404.009,429.493c0.051-0.134,0.097-0.268,0.15-0.404
						C404.105,429.225,404.059,429.359,404.009,429.493z"/>
					<path style="fill:#EF4323;" d="M404.436,428.42c0.052-0.124,0.104-0.245,0.155-0.367
						C404.538,428.176,404.488,428.296,404.436,428.42z"/>
					<path style="fill:#EF4323;" d="M404.917,427.376c0.053-0.109,0.104-0.223,0.16-0.332
						C405.021,427.153,404.97,427.267,404.917,427.376z"/>
					<path style="fill:#EF4323;" d="M416.054,416.355c0.003-0.003,0.007-0.003,0.012-0.009
						C416.061,416.352,416.057,416.352,416.054,416.355z"/>
					<path style="fill:#EF4323;" d="M412.144,418.692c0.022-0.016,0.042-0.031,0.063-0.046
						C412.186,418.661,412.166,418.676,412.144,418.692z"/>
					<path style="fill:#EF4323;" d="M414.041,417.432c0.008-0.009,0.021-0.017,0.033-0.023
						C414.061,417.415,414.048,417.423,414.041,417.432z"/>
					<path style="fill:#EF4323;" d="M413.077,418.038c0.014-0.013,0.03-0.022,0.046-0.032
						C413.108,418.016,413.091,418.025,413.077,418.038z"/>
					<path style="fill:#EF4323;" d="M415.031,416.868c0.007-0.004,0.015-0.009,0.025-0.011
						C415.046,416.859,415.038,416.864,415.031,416.868z"/>
					<path style="fill:#EF4323;" d="M411.248,419.392c0.025-0.024,0.05-0.046,0.078-0.065
						C411.298,419.346,411.273,419.368,411.248,419.392z"/>
					<path style="fill:#EF4323;" d="M409.556,420.909c0.036-0.037,0.07-0.074,0.106-0.107
						C409.626,420.835,409.593,420.872,409.556,420.909z"/>
					<path style="fill:#EF4323;" d="M408.766,421.727c0.042-0.043,0.082-0.089,0.121-0.131
						C408.848,421.638,408.808,421.684,408.766,421.727z"/>
					<path style="fill:#EF4323;" d="M410.386,420.125c0.03-0.025,0.057-0.052,0.088-0.082
						C410.443,420.073,410.416,420.1,410.386,420.125z"/>
					<path style="fill:#C4301C;" d="M419.338,510.763c0.05,0.036,0.096,0.068,0.147,0.101c0.269,0.177,0.538,0.346,0.81,0.511
						c0.044,0.027,0.087,0.052,0.13,0.077c0.282,0.17,0.569,0.333,0.86,0.491c0.033,0.018,0.07,0.036,0.105,0.057
						c0.297,0.159,0.599,0.309,0.904,0.455c0.029,0.014,0.059,0.03,0.089,0.044c0.316,0.149,0.631,0.29,0.946,0.425
						c0.025,0.008,0.049,0.022,0.073,0.031c0.325,0.135,0.653,0.267,0.988,0.386c0.016,0.006,0.035,0.014,0.052,0.023
						c0.339,0.122,0.68,0.237,1.024,0.346c0.013,0.005,0.027,0.008,0.04,0.011c0.349,0.11,0.702,0.209,1.058,0.301
						c0.008,0.006,0.017,0.007,0.027,0.008c0.36,0.094,0.723,0.178,1.089,0.254c0.003,0.002,0.007,0.002,0.013,0.003
						c0.368,0.079,0.741,0.143,1.116,0.204c0,0,0.002-0.001,0.002,0.002c0.375,0.058,0.757,0.11,1.138,0.152
						c0.001-0.001,0.001-0.001,0.001-0.001c1.148,0.124,2.317,0.167,3.496,0.12l0,0c0.394-0.014,0.789-0.042,1.184-0.078
						c0,0,0.003,0.001,0.005,0.003c-7.246-3.817-12.557-11.009-13.594-19.753l-0.885-7.434l-11.712,1.388l0.6,5.051
						c0.046,0.4,0.105,0.796,0.174,1.193c0.02,0.133,0.052,0.267,0.075,0.398c0.05,0.26,0.098,0.517,0.153,0.771
						c0.036,0.165,0.079,0.323,0.12,0.485c0.053,0.222,0.104,0.444,0.165,0.661c0.047,0.176,0.103,0.344,0.154,0.515
						c0.061,0.203,0.117,0.405,0.186,0.606c0.059,0.181,0.124,0.357,0.19,0.535c0.066,0.187,0.129,0.376,0.197,0.561
						c0.074,0.185,0.154,0.369,0.231,0.553c0.071,0.168,0.14,0.344,0.214,0.508c0.083,0.191,0.176,0.377,0.262,0.563
						c0.077,0.16,0.15,0.319,0.228,0.475c0.095,0.189,0.199,0.38,0.302,0.57c0.077,0.146,0.153,0.289,0.233,0.434
						c0.112,0.196,0.228,0.385,0.344,0.577c0.077,0.134,0.158,0.266,0.241,0.397c0.121,0.197,0.253,0.387,0.383,0.581
						c0.078,0.119,0.156,0.24,0.239,0.358c0.139,0.194,0.284,0.392,0.43,0.587c0.079,0.105,0.156,0.213,0.237,0.319
						c0.155,0.199,0.313,0.391,0.472,0.581c0.078,0.097,0.156,0.194,0.234,0.29c0.173,0.196,0.346,0.389,0.52,0.583
						c0.076,0.081,0.148,0.165,0.225,0.247c0.186,0.199,0.378,0.391,0.57,0.583c0.069,0.07,0.141,0.142,0.211,0.211
						c0.203,0.195,0.408,0.389,0.618,0.575c0.065,0.059,0.131,0.12,0.198,0.181c0.218,0.19,0.441,0.382,0.665,0.565
						c0.062,0.049,0.121,0.103,0.185,0.152c0.234,0.187,0.473,0.372,0.714,0.549c0.056,0.046,0.109,0.083,0.166,0.128
						C418.824,510.412,419.078,510.59,419.338,510.763z"/>
					<path style="fill:#C4301C;" d="M414.127,436.716c-1.037-8.74,2.442-16.974,8.595-22.379l-0.004,0
						c-0.394,0.058-0.781,0.127-1.169,0.203l0,0c-1.158,0.232-2.287,0.541-3.371,0.932l-0.001-0.001
						c-0.363,0.129-0.719,0.268-1.071,0.415c-0.002-0.001-0.002-0.001-0.002-0.001c-0.35,0.148-0.695,0.301-1.038,0.46
						c-0.005,0.005-0.009,0.005-0.012,0.009c-0.341,0.157-0.672,0.323-0.999,0.502c-0.009,0.003-0.018,0.007-0.025,0.011
						c-0.324,0.174-0.644,0.355-0.957,0.541c-0.013,0.006-0.026,0.014-0.033,0.023c-0.311,0.183-0.619,0.377-0.917,0.574
						c-0.016,0.01-0.033,0.019-0.046,0.032c-0.297,0.195-0.585,0.398-0.87,0.608c-0.021,0.015-0.041,0.03-0.063,0.046
						c-0.276,0.206-0.55,0.415-0.819,0.634c-0.027,0.02-0.052,0.042-0.078,0.065c-0.264,0.21-0.522,0.427-0.774,0.651
						c-0.031,0.03-0.058,0.057-0.088,0.082c-0.246,0.222-0.488,0.444-0.724,0.676c-0.036,0.033-0.07,0.071-0.106,0.107
						c-0.225,0.225-0.45,0.451-0.669,0.686c-0.04,0.043-0.08,0.088-0.121,0.131c-0.208,0.228-0.414,0.462-0.615,0.695
						c-0.045,0.053-0.088,0.11-0.132,0.16c-0.192,0.231-0.383,0.465-0.567,0.703c-0.048,0.064-0.095,0.128-0.142,0.191
						c-0.179,0.232-0.348,0.466-0.515,0.707c-0.051,0.072-0.1,0.146-0.15,0.22c-0.161,0.231-0.316,0.465-0.466,0.702
						c-0.054,0.085-0.104,0.173-0.158,0.26c-0.142,0.229-0.282,0.46-0.415,0.698c-0.056,0.094-0.108,0.195-0.162,0.295
						c-0.126,0.225-0.249,0.455-0.368,0.686c-0.056,0.11-0.107,0.223-0.16,0.332c-0.111,0.227-0.221,0.451-0.326,0.677
						c-0.051,0.122-0.103,0.244-0.155,0.367c-0.094,0.221-0.188,0.445-0.277,0.669c-0.054,0.136-0.1,0.27-0.15,0.404
						c-0.082,0.218-0.164,0.434-0.237,0.655c-0.05,0.148-0.094,0.296-0.14,0.443c-0.068,0.211-0.135,0.425-0.197,0.639
						c-0.045,0.159-0.084,0.32-0.127,0.477c-0.054,0.209-0.113,0.413-0.159,0.624c-0.041,0.171-0.073,0.343-0.109,0.516
						c-0.043,0.204-0.087,0.405-0.124,0.607c-0.034,0.18-0.06,0.363-0.088,0.545c-0.033,0.195-0.065,0.394-0.091,0.595
						c-0.028,0.192-0.046,0.392-0.065,0.589c-0.021,0.187-0.044,0.375-0.061,0.564c-0.017,0.211-0.024,0.424-0.036,0.633
						c-0.011,0.176-0.025,0.356-0.03,0.535c-0.009,0.225-0.006,0.454-0.005,0.681c-0.001,0.167-0.005,0.333-0.003,0.498
						c0.005,0.263,0.019,0.526,0.033,0.786c0.008,0.134,0.008,0.271,0.016,0.408c0.028,0.399,0.065,0.798,0.112,1.199l0.602,5.05
						l11.713-1.388L414.127,436.716z"/>
					
						<rect x="408.207" y="484.913" transform="matrix(0.9931 -0.1176 0.1176 0.9931 -54.3585 52.0884)" style="fill:#1E1109;" width="11.796" height="3.294"/>
					
						<rect x="405.81" y="450.85" transform="matrix(0.993 -0.1178 0.1178 0.993 -52.0803 51.7552)" style="fill:#1E1109;" width="11.798" height="31.054"/>
					
						<rect x="403.432" y="444.834" transform="matrix(0.9931 -0.1177 0.1177 0.9931 -49.67 51.259)" style="fill:#1E1109;" width="11.796" height="3.003"/>
					
						<rect x="403.794" y="447.816" transform="matrix(0.993 -0.1177 0.1177 0.993 -50.0551 51.3552)" style="fill:#5B3B24;" width="11.797" height="3.153"/>
					
						<rect x="407.826" y="481.784" transform="matrix(0.9931 -0.1176 0.1176 0.9931 -53.9814 52.018)" style="fill:#5B3B24;" width="11.798" height="3.151"/>
				</g>
			</g>
			<g>
				<path style="fill:#F9A01B;" d="M506.847,463.984c-28.886-6.605-38.103,6.224-38.103,6.224l86.946,40.322L506.847,463.984z"/>
				<path style="fill:#FED600;" d="M451.464,507.471l8.538,3.96c2.151-3.912,6.966-5.576,11.074-3.67
					c4.11,1.905,5.955,6.659,4.349,10.823l62.984,29.209l2.469-5.326c-2.224-1.719-3.059-4.798-1.825-7.457
					c1.233-2.656,4.119-4.009,6.871-3.422l9.764-21.059l-86.946-40.322L451.464,507.471z M527.16,512.269
					c2.096-4.52,7.456-6.48,11.974-4.384c4.517,2.094,6.475,7.449,4.38,11.967c-2.094,4.515-7.447,6.482-11.963,4.387
					C527.032,522.143,525.067,516.783,527.16,512.269z M501.871,517.015c1.274-2.747,4.53-3.939,7.272-2.665
					c2.743,1.271,3.939,4.527,2.664,7.273c-1.272,2.745-4.529,3.937-7.272,2.664C501.791,523.015,500.597,519.762,501.871,517.015z
					 M489.79,498.583c1.646-3.546,5.855-5.086,9.397-3.445c3.547,1.646,5.088,5.853,3.442,9.4c-1.642,3.544-5.85,5.082-9.395,3.437
					C489.691,506.334,488.149,502.127,489.79,498.583z M468.543,492.879c0.769-1.657,2.738-2.377,4.398-1.609
					c1.656,0.77,2.378,2.738,1.61,4.396c-0.77,1.657-2.737,2.374-4.396,1.606C468.498,496.504,467.775,494.537,468.543,492.879z"/>
				<path style="fill:#F9A01B;" d="M471.076,507.76c4.11,1.905,5.955,6.659,4.349,10.823l-15.423-7.153
					C462.153,507.519,466.969,505.855,471.076,507.76z"/>
				<path style="fill:#F9A01B;" d="M539.054,535.01c1.233-2.656,4.119-4.009,6.871-3.422l-5.046,10.878
					C538.656,540.747,537.82,537.669,539.054,535.01z"/>
				<path style="fill:#F9A01B;" d="M539.134,507.885c4.517,2.094,6.475,7.449,4.38,11.967c-2.094,4.515-7.447,6.482-11.963,4.387
					c-4.519-2.096-6.484-7.456-4.391-11.97C529.256,507.749,534.616,505.789,539.134,507.885z"/>
				<path style="fill:#F9A01B;" d="M509.144,514.35c2.743,1.271,3.939,4.527,2.664,7.273c-1.272,2.745-4.529,3.937-7.272,2.664
					c-2.744-1.273-3.938-4.525-2.664-7.272C503.146,514.268,506.401,513.076,509.144,514.35z"/>
				<path style="fill:#F9A01B;" d="M472.941,491.27c1.656,0.77,2.378,2.738,1.61,4.396c-0.77,1.657-2.737,2.374-4.396,1.606
					c-1.658-0.768-2.381-2.736-1.613-4.393C469.312,491.222,471.282,490.502,472.941,491.27z"/>
				<path style="fill:#F9A01B;" d="M499.187,495.139c3.547,1.646,5.088,5.853,3.442,9.4c-1.642,3.544-5.85,5.082-9.395,3.437
					c-3.543-1.642-5.085-5.848-3.444-9.392C491.436,495.038,495.645,493.497,499.187,495.139z"/>
			</g>
			<g>
				<path style="fill:#87134B;" d="M481.31,441.626c8.515,3.834,10.198,15.57,3.873,27.156
					c-7.994,14.633-24.379,34.989-45.575,41.606c-17.203,5.366-32.066,3.756-37.46-8.215c-9.102-20.215,9.777-27.421,23.062-31.362
					c9.982-2.962,28.837-9.602,36.24-16.932C468.609,446.786,473.208,437.968,481.31,441.626z"/>
				<path style="fill:#68113E;" d="M483.421,457.568c-9.101,16.658-27.75,39.829-51.872,47.358
					c-9.348,2.916-18.086,4.017-25.337,2.895c7.054,6.723,19.514,6.985,33.534,2.61c21.193-6.613,37.579-26.971,45.574-41.607
					c4.411-8.075,4.925-16.223,1.946-21.718C486.619,450.487,485.35,454.033,483.421,457.568z"/>
				<path style="fill:#90AC3D;" d="M487.617,437.776l5.4-13.36l-3.506-1.078l-6.486,15.167c0,0-0.315-7.148-5.428-9.128
					c-2.051-0.796,0.614,8.785,0.614,8.785s-6.18-2.605-12.953,4.581c-2.445,2.591,12.664,0.248,12.664,0.248
					s-5.355,14.958-2.579,13.802c3.018-1.257,10.527-11.117,10.527-11.117s3.937,15.926,4.33,15.678
					c8.656-5.491-0.892-17.489-0.892-17.489s8.159,6.537,8.22,5.657C498.272,438.546,487.617,437.776,487.617,437.776z"/>
				<path style="fill:#ACC941;" d="M487.318,443.871c0.581,0.822,1.101,1.489,1.228,1.685c6.057,9.469,2.754,15.319,3.24,14.527
					c0.167-0.277,5.715-4.543-1.632-16.749c-0.78-1.292-1.792-2.662-2.851-3.302l5.715-15.616l-1.163-0.357l-5.833,14.906
					c-0.968-0.872-2.89-1.25-4.588-1.404c-14.192-1.282-16.249,5.509-16.426,5.784c-0.499,0.782,3.966-4.685,15.125-3.367
					c0.288,0.034,1.512,0.3,2.821,0.489c-0.832,0.699-1.53,1.471-1.712,1.721c-2.341,3.169-6.81,14.775-5.899,14.605
					c0.32-0.061,7.382-4.952,11.306-10.726C487.043,445.489,487.252,444.706,487.318,443.871z"/>
				<g>
					<path style="fill:#BF719A;" d="M463.596,461.877c-0.657,0-1.308-0.282-1.759-0.829c-0.8-0.971-0.661-2.406,0.309-3.206
						c0.624-0.514,1.199-1.03,1.708-1.535c1.652-1.637,3.132-3.313,4.563-4.935c0.832-0.943,2.271-1.033,3.215-0.2
						c0.943,0.832,1.032,2.272,0.2,3.214c-1.48,1.677-3.011,3.411-4.772,5.157c-0.609,0.602-1.287,1.212-2.017,1.814
						C464.619,461.707,464.106,461.877,463.596,461.877z"/>
				</g>
				<g>
					<path style="fill:#BF719A;" d="M406.29,490.615c-0.317,0-0.64-0.067-0.947-0.207c-1.143-0.524-1.646-1.876-1.122-3.019
						c3.191-6.963,13.412-10.767,21.961-13.303c4.529-1.344,20.135-6.226,30.794-12.651c1.078-0.649,2.477-0.302,3.126,0.775
						c0.649,1.077,0.302,2.477-0.775,3.126c-10.819,6.521-25.878,11.346-31.85,13.117c-7.03,2.086-16.661,5.478-19.116,10.834
						C407.979,490.122,407.153,490.615,406.29,490.615z"/>
				</g>
			</g>
			<g>
				<path style="fill:#688300;" d="M382.729,380.592c0,0-7.556,60.921-0.173,79.329c1.712,4.255,12.711,13.228,12.711,13.228
					s3.19-33.533,1.798-44.608C395.504,416.13,382.729,380.592,382.729,380.592z"/>
				<path style="fill:#576F00;" d="M366.006,360.888c0,0,20.812,57.755,17.667,77.337c-0.727,4.531-9.479,15.708-9.479,15.708
					s-8.16-20.434-12.125-30.866C350.435,392.457,366.006,360.888,366.006,360.888z"/>
				<path style="fill:#405A2A;" d="M368.802,459.806c0,0-4.621-7.359-7.864-22.406c-1.589-7.371-17.955-43.015-17.955-43.015
					s11.604,4.133,17.432,11.126c5.828,6.993,15.773,18.925,15.773,18.925c14.369-15.759,25.41-24.221,25.41-24.221
					s-0.557,24.479,0.206,32.59c0.932,9.883,7.176,39.052,7.176,39.052l-18.031,24.064L368.802,459.806z"/>
				<path style="fill:#FFC017;" d="M399.684,442.169c6.001,26.27,4.056,49.121-4.343,51.04c-8.398,1.92-20.071-17.822-26.071-44.092
					c-6.001-26.272-4.057-49.126,4.34-51.043C382.01,396.156,393.684,415.898,399.684,442.169z"/>
				<path style="fill:#FFE03E;" d="M391.125,431.026c4.111,17.996,3.194,33.553-2.05,34.75
					c-5.237,1.198-12.821-12.418-16.931-30.413c-4.11-17.995-3.194-33.55,2.047-34.749
					C379.432,399.417,387.015,413.032,391.125,431.026z"/>
				<path style="fill:#447F1D;" d="M414.062,447.008c0,0-2.252,8.621-1.965,18.594c0.226,7.896,6.963,27.406,4.544,34.926
					c-2,6.213-3.975,10.335-12.397,12.257c-2.384,0.546-12.905-2.893-12.905-2.893s4.367-15.52,5.653-22.04
					c1.379-7-1.238-20.258,4.89-31.987C405.957,448.069,414.062,447.008,414.062,447.008z"/>
				<polygon style="fill:#A8D137;" points="407.98,520.217 397.843,520.679 394.646,506.691 404.382,504.466 				"/>
				<g>
					<path style="fill:#FFFFFF;" d="M376.089,404.346c-1.298-1.359-4.36,2.432-4.475,6.304c-0.107,3.688,1.157,8.154,3.302,6.848
						c1.435-0.876,0.183-3.763,0.088-5.148C374.759,408.757,377.895,406.244,376.089,404.346z"/>
				</g>
				<path style="fill:#447F1D;" d="M356.137,455.713c0,0,8.954,5.871,13.596,15.821c3.844,8.236,6.205,30.203,12.468,36.788
					c5.174,5.438,9.281,8.723,18.97,6.507c9.352-2.138,11.266-6.116,11.266-6.116s-12.831-12.114-17.417-18.226
					c-4.928-6.57-7.958-20.907-21.837-31.682C365.192,452.597,356.137,455.713,356.137,455.713z"/>
				<path style="fill:#FFC017;" d="M382.119,444.161c0.328,1.438-0.571,2.875-2.013,3.206l-4.869,1.111
					c-1.439,0.327-2.873-0.574-3.201-2.016l0,0c-0.33-1.439,0.571-2.872,2.009-3.204l4.87-1.111
					C380.356,441.817,381.791,442.72,382.119,444.161L382.119,444.161z"/>
				<path style="fill:#FFC017;" d="M388.869,450.483c0.33,1.44-0.573,2.876-2.011,3.202l-4.87,1.115
					c-1.438,0.329-2.874-0.573-3.202-2.012l0,0c-0.33-1.442,0.571-2.877,2.012-3.206l4.866-1.112
					C387.105,448.14,388.541,449.041,388.869,450.483L388.869,450.483z"/>
				<path style="fill:#FFC017;" d="M390.126,436.841c0.329,1.441-0.574,2.875-2.013,3.206l-4.867,1.112
					c-1.441,0.327-2.877-0.572-3.205-2.014l0,0c-0.33-1.439,0.572-2.875,2.011-3.207l4.869-1.111
					C388.362,434.501,389.797,435.402,390.126,436.841L390.126,436.841z"/>
				<path style="fill:#FFC017;" d="M393.762,429.534c0.329,1.44-0.573,2.875-2.012,3.205l-4.869,1.111
					c-1.44,0.329-2.876-0.573-3.203-2.013l0,0c-0.329-1.44,0.571-2.873,2.011-3.203l4.869-1.113
					C391.997,427.193,393.433,428.094,393.762,429.534L393.762,429.534z"/>
				<path style="fill:#FFC017;" d="M377.365,428.681c0.329,1.441-0.573,2.875-2.015,3.205l-4.866,1.111
					c-1.444,0.33-2.875-0.572-3.205-2.014l0,0c-0.328-1.438,0.57-2.876,2.013-3.204l4.866-1.111
					C375.599,426.338,377.035,427.239,377.365,428.681L377.365,428.681z"/>
				<path style="fill:#FFC017;" d="M387.422,410.762c0.328,1.44-0.572,2.876-2.015,3.206l-4.865,1.112
					c-1.442,0.329-2.875-0.573-3.202-2.014l0,0c-0.331-1.439,0.569-2.876,2.01-3.206l4.865-1.112
					C385.657,408.419,387.094,409.32,387.422,410.762L387.422,410.762z"/>
			</g>
			<g>
				<polygon style="fill:#FED600;" points="430.016,510.388 429.695,518.363 432.745,518.486 438.402,518.713 438.506,516.102 
					438.721,510.737 				"/>
				<polygon style="fill:#FED600;" points="454.593,511.373 454.379,516.738 454.275,519.348 472.112,520.064 475.159,520.187 
					475.48,512.211 				"/>
				<path style="fill:#A51927;" d="M450.469,614.249l20.872,0.837c3.752,0.151,6.915-2.768,7.067-6.522l0.781-19.483l-27.666-1.108
					L450.469,614.249z"/>
				<path style="fill:#A51927;" d="M420.167,586.716l-0.782,19.483c-0.149,3.752,2.769,6.915,6.522,7.067l8.69,0.347l1.053-26.276
					L420.167,586.716z"/>
				<path style="fill:#A51927;" d="M432.522,524.057l-3.034-0.122c-3.753-0.15-6.915,2.769-7.067,6.525l-0.698,17.424l15.484,0.621
					l0.324-8.044l0.647-16.175L432.522,524.057z"/>
				<path style="fill:#A51927;" d="M474.921,525.758l-3.035-0.122l-17.836-0.716l-0.648,16.177l-0.323,8.042l27.665,1.11
					l0.698-17.425C481.592,529.073,478.674,525.908,474.921,525.758z"/>
				
					<rect x="426.023" y="577.315" transform="matrix(0.04 -0.9992 0.9992 0.04 -173.7334 989.2959)" style="fill:#D1D3D4;" width="3.929" height="15.496"/>
				
					<rect x="427.458" y="542.374" transform="matrix(0.04 -0.9992 0.9992 0.04 -137.4885 957.1345)" style="fill:#D1D3D4;" width="3.86" height="15.496"/>
				
					<rect x="464.905" y="537.779" transform="matrix(0.04 -0.9992 0.9992 0.04 -103.0313 996.004)" style="fill:#D1D3D4;" width="3.861" height="27.687"/>
				
					<rect x="463.469" y="572.721" transform="matrix(0.04 -0.9992 0.9992 0.04 -139.2911 1028.1462)" style="fill:#D1D3D4;" width="3.929" height="27.688"/>
				
					<rect x="413.151" y="559.827" transform="matrix(0.04 -0.9992 0.9992 0.04 -155.5994 973.1899)" style="fill:#FED600;" width="31.075" height="15.496"/>
				
					<rect x="450.598" y="555.233" transform="matrix(0.0401 -0.9992 0.9992 0.0401 -121.1781 1012.0137)" style="fill:#FED600;" width="31.075" height="27.687"/>
				<polygon style="fill:#840719;" points="472.112,520.064 454.275,519.348 436.043,518.598 436.051,518.619 432.745,518.486 
					432.522,524.057 438.178,524.286 454.051,524.919 471.887,525.635 				"/>
				<polygon style="fill:#F9F916;" points="438.721,510.737 438.506,516.102 438.402,518.713 454.275,519.348 454.379,516.738 
					454.593,511.373 				"/>
				
					<rect x="429.911" y="592.851" transform="matrix(0.0401 -0.9992 0.9992 0.0401 -174.9972 1019.4335)" style="fill:#D61E30;" width="26.297" height="15.884"/>
				<polygon style="fill:#D61E30;" points="438.178,524.286 437.531,540.46 437.208,548.504 453.08,549.139 453.402,541.096 
					454.051,524.919 				"/>
				
					<rect x="443.136" y="542.807" transform="matrix(0.0401 -0.9992 0.9992 0.0401 -123.084 973.3788)" style="fill:#FFFFFF;" width="3.861" height="15.886"/>
				
					<rect x="441.7" y="577.75" transform="matrix(0.0401 -0.9992 0.9992 0.0401 -159.3398 1005.5231)" style="fill:#FFFFFF;" width="3.93" height="15.884"/>
				
					<rect x="428.83" y="560.261" transform="matrix(0.04 -0.9992 0.9992 0.04 -141.1739 989.463)" style="fill:#F9F916;" width="31.074" height="15.885"/>
				
					<rect x="440.863" y="595.326" transform="matrix(0.04 -0.9992 0.9992 0.04 -182.256 1030.1116)" style="fill:#A51927;" width="8.237" height="29.165"/>
				
					<rect x="444.659" y="513.703" transform="matrix(0.04 -0.9992 0.9992 0.04 -97.5582 955.0261)" style="fill:#A51927;" width="7.191" height="29.166"/>
			</g>
			<g>
				<path style="fill:#A1DB46;" d="M470.564,566.869c2.806,27.728,26.241,48.064,52.348,45.423
					c26.107-2.638,44.996-27.255,42.192-54.982c-2.801-27.728-26.241-48.063-52.347-45.424
					C486.654,514.525,467.76,539.143,470.564,566.869z"/>
				<path style="fill:#86C644;" d="M469.78,560.912c-3.141-3.886-4.116-15.355-2.012-19.886c0.867-1.863,5.577-2.974,6.779-4.639
					c1.55-2.144,0.772-8.626,2.92-10.173c2.35-1.697,8.779,1.224,11.576,0.472c2.124-0.568,5.313-5.296,7.427-4.702
					c2.025,0.569,1.865,6.558,3.725,7.53c2.983,1.553,10.413-3.728,13.302-2.005c2.029,1.212,1.457,7.303,3.206,8.896
					c1.741,1.592,7.95,0.33,9.13,2.372c3.083,5.317-6.496,23.71-6.496,23.71l-24.704,6.449
					C494.634,568.936,473.881,565.99,469.78,560.912z"/>
				<path style="fill:#71A534;" d="M516.508,557.46c-0.313-0.128-0.644-0.222-0.98-0.303c0.315-3.249,1.288-10.952,1.303-11.268
					c0.019-0.389-2.359-13.497-2.359-13.497s-5.718,0.008-8.647,2.048c-2.929,2.039,1.009,8.624,0.862,8.989
					c-0.148,0.366-1.483,1.114-5.009,3.822c-3.331,2.558-0.089,9.088,1.688,13.411c-0.678,0.295-1.316,0.543-1.749,0.635
					c-0.671-0.608-1.786-2.186-2.484-3.175c-2.134-3.019-4.34-6.141-7.841-6.695c-0.199-0.031-0.406-0.053-0.614-0.063
					c-2.615-0.128-4.745,1.489-6.624,2.915c-0.268,0.203-0.596,0.452-0.911,0.68c-0.376-0.494-0.787-1.087-1.086-1.518
					c-1.764-2.543-3.763-5.425-7.165-5.643l-0.032-0.002l-0.053-0.003c-3.108-0.151-5.306,2.184-7.072,4.061
					c-0.224,0.237-0.496,0.525-0.759,0.794c0.467,3.396,1.428,6.559,2.805,8.263c4.101,5.078,24.855,8.024,24.855,8.024
					l24.704-6.449c0,0,0.396-0.762,0.996-2.008C519.281,559.148,518.042,558.086,516.508,557.46z"/>
				<path style="fill:#C2F274;" d="M562.791,536.928c0.46-4.978-5.093-15.058-9.361-17.659c-1.752-1.07-6.287,0.617-8.211-0.099
					c-2.477-0.93-5.432-6.747-8.075-6.847c-2.893-0.106-6.62,5.888-9.369,6.818c-2.081,0.704-7.356-1.459-8.786,0.21
					c-1.367,1.594,2.086,6.489,1.078,8.328c-1.619,2.949-10.732,2.678-12.176,5.712c-1.023,2.135,2.834,6.887,2.265,9.181
					c-0.567,2.29-6.431,4.685-6.282,7.039c0.391,6.134,15.411,43.706,15.411,43.706l27.283-35.925
					C546.568,557.392,562.191,543.431,562.791,536.928z"/>
				<path style="fill:#86C644;" d="M536.68,616.739c7.427-3.971,10.708-27.666,4.527-33.391c-2.798-2.594-11.928-0.256-15.062-2.431
					c-4.643-3.214-5.978-17.478-11.206-19.612c-3.466-1.418-10.781,5.03-14.408,4.092c-3.378-0.876-6.438-9.32-9.89-9.867
					c-2.253-0.36-5.891,4.465-8.143,4.115c-2.723-0.42-5.125-7.525-7.872-7.702c-2.212-0.14-4.913,4.83-7.071,5.352
					c-2.755,0.67-9.75-4.372-11.181-1.924c-2.179,3.726,9.093,9.469,10.907,13.387c1.656,3.58,2.343,11.609,2.87,15.518
					C475.499,623.979,520.359,625.468,536.68,616.739z"/>
				<g>
					<path style="fill:#71A534;" d="M526.645,619.209c-0.359-0.803-3.09-4.135-18.404-2.358
						c-15.313,1.776-26.552-15.228-28.785-29.121c-1.841-11.456-0.028-19.159-8.861-23.477c-4.755-2.325-14.274-6.828-11.41-3.28
						c2.939,2.713,7.06,5.547,8.096,7.785c1.656,3.58,2.343,11.609,2.871,15.518c4.522,33.575,37.298,39.819,57.179,35.669
						C526.958,619.59,526.7,619.332,526.645,619.209z"/>
					<path style="fill:#71A534;" d="M456.322,557.425c-0.06-0.178-0.122-0.352-0.173-0.544
						C456.186,557.06,456.248,557.241,456.322,557.425z"/>
				</g>
				<path style="fill:#71A534;" d="M480.53,607.348c15.642,16.735,43.915,15.935,56.149,9.391
					c4.031-2.155,6.836-10.118,7.575-17.866c-2.488-8.305-2.213-7.708-2.213-7.708l-3.747-8.953
					c-3.896-0.596-9.762,0.363-12.15-1.295c-2.562-1.773-4.117-6.91-5.874-11.518l-0.37-0.018c1.555,6.962,2.087,10.27-5.811,15.953
					c-7.899,5.684-8.514,11.197,0.71,21C524.022,616.136,503.363,623.781,480.53,607.348z"/>
				<path style="fill:#A1DB46;" d="M537.565,617.009c-8.662,1.493-26.55-15.915-25.125-24.592
					c0.644-3.928,9.662-7.864,10.852-11.662c1.761-5.626-6.278-18.229-3.341-23.34c1.948-3.388,12.105-2.774,14.488-5.871
					c2.221-2.891-0.665-11.803,1.823-14.47c1.621-1.738,7.711-0.101,9.345-1.834c1.971-2.09-0.6-9.484,1.548-11.39
					c1.734-1.535,7.144,0.819,9.254-0.127c2.699-1.218,5.229-9.858,7.976-8.76c4.18,1.674-1.422,13.631-0.405,18.019
					c0.932,4.01,5.508,11.061,7.58,14.619C592.596,583.723,556.599,613.725,537.565,617.009z"/>
				<g>
					<path style="fill:#FFFFFF;" d="M559.337,550.544c3.239-2.526,8.651,6.656,7.654,15.077c-0.948,8.013-5.124,17.274-9.349,13.755
						c-2.821-2.355,0.82-8.205,1.469-11.163C560.792,560.51,554.815,554.069,559.337,550.544z"/>
				</g>
			</g>
			<g>
				<path style="fill:#F88729;" d="M288.822,352.419c10.995-3.848,24.678,3.135,38.221,17.689l-14.323,5.021
					c-3.316,1.163-5.058,4.786-3.899,8.104c1.162,3.315,4.791,5.064,8.108,3.901l18.81-6.586c2.546,3.368,5.069,6.988,7.541,10.833
					l-22.146,7.762c-3.314,1.162-5.059,4.789-3.898,8.108c1.161,3.317,4.789,5.061,8.107,3.897l24.605-8.618
					c2.033,3.653,4.02,7.454,5.948,11.398l-26.346,9.234c-3.314,1.157-5.06,4.785-3.903,8.096c1.166,3.323,4.791,5.071,8.112,3.905
					l27.454-9.617c1.649,3.837,3.246,7.773,4.761,11.816l-28.016,9.81c-3.309,1.159-5.057,4.791-3.895,8.105
					c1.16,3.317,4.787,5.066,8.105,3.901l28.013-9.807c1.337,4.099,2.549,8.17,3.657,12.197l-27.463,9.619
					c-3.316,1.161-5.062,4.792-3.901,8.108c1.16,3.313,4.79,5.06,8.108,3.897l26.343-9.228c0.956,4.282,1.782,8.497,2.465,12.624
					l-24.6,8.614c-3.318,1.164-5.064,4.792-3.903,8.106c1.161,3.313,4.791,5.064,8.105,3.901l22.145-7.758
					c0.471,4.554,0.753,8.949,0.868,13.174l-18.8,6.593c-3.32,1.159-5.069,4.787-3.902,8.108c1.159,3.317,4.787,5.063,8.102,3.898
					l14.317-5.015c-1.498,19.822-7.833,33.82-18.829,37.674c-0.292,0.102-0.591,0.157-0.886,0.247
					c-0.258,0.122-0.531,0.224-0.797,0.322c-6.202,2.004-12.896-1.279-15.06-7.464l-7.698-21.965l-50.72-144.799l-7.699-21.97
					c-2.164-6.184,1.015-12.929,7.11-15.229c0.268-0.089,0.551-0.176,0.829-0.244C288.253,352.664,288.526,352.529,288.822,352.419z
					"/>
				<path style="opacity:0.2;fill:#68113E;" d="M382.002,512.627c-0.114-4.225-0.396-8.62-0.868-13.174
					c-0.229-2.207-0.502-4.448-0.814-6.718c-0.603,1.276-0.852,3.759-0.538,7.835c1.578,20.494-10.457,25.482-16.95,26.454
					c-6.493,0.972-9.507-7.972-16.16-18.942c-6.652-10.97-4.224-15.374,3.852-18.489l-30.7,2.62l-1.651,3.879
					c2.265,1.601,4.861,2.801,7.7,3.034l12.575,35.9l7.698,21.965c2.165,6.185,8.859,9.468,15.061,7.464
					c0.267-0.098,0.54-0.2,0.797-0.322c0.295-0.09,0.594-0.146,0.886-0.248c10.996-3.854,17.331-17.852,18.829-37.673
					C382.042,521.943,382.136,517.393,382.002,512.627z"/>
				<path style="fill:#C64817;" d="M334.061,455.278c-1.162-3.314,0.586-6.946,3.895-8.105l28.016-9.81
					c0.74,1.974,1.47,3.956,2.175,5.971c0.707,2.016,1.381,4.029,2.032,6.038l-28.013,9.807
					C338.848,460.344,335.221,458.595,334.061,455.278z"/>
				<path style="fill:#C64817;" d="M342.471,479.295c-1.161-3.315,0.586-6.947,3.901-8.108l27.463-9.619
					c1.151,4.188,2.177,8.322,3.086,12.396l-26.343,9.228C347.261,484.356,343.631,482.608,342.471,479.295z"/>
				<path style="fill:#C64817;" d="M317.234,407.251c-1.16-3.32,0.584-6.946,3.898-8.108l22.146-7.762
					c2.266,3.538,4.492,7.255,6.667,11.149l-24.605,8.618C322.023,412.312,318.396,410.568,317.234,407.251z"/>
				<path style="fill:#C64817;" d="M325.645,431.259c-1.157-3.311,0.589-6.939,3.903-8.096l26.346-9.234
					c1.831,3.753,3.61,7.633,5.317,11.619l-27.454,9.617C330.436,436.33,326.811,434.581,325.645,431.259z"/>
				<path style="fill:#C64817;" d="M308.82,383.233c-1.159-3.318,0.583-6.941,3.899-8.104l14.323-5.021
					c2.914,3.134,5.82,6.633,8.695,10.44l-18.81,6.586C313.611,388.297,309.982,386.548,308.82,383.233z"/>
				<path style="fill:#C64817;" d="M350.884,503.309c-1.161-3.314,0.584-6.942,3.903-8.106l24.6-8.614
					c0.735,4.396,1.314,8.687,1.748,12.864l-22.145,7.758C355.676,508.373,352.045,506.622,350.884,503.309z"/>
				<path style="fill:#C64817;" d="M359.3,527.328c-1.167-3.321,0.582-6.949,3.902-8.108l18.8-6.593
					c0.133,4.766,0.04,9.316-0.283,13.584l-14.317,5.015C364.086,532.391,360.459,530.645,359.3,527.328z"/>
				<path style="opacity:0.5;fill:#68113E;" d="M358.915,487.87c-2.838,2.61-10.631,0.426-24.861,9.141
					c-14.23,8.715-25.248-11.654-25.248-11.654s9.629-7.319,15.002-5.575c5.373,1.744,12.403,1.887,16.72,3.391
					C344.845,484.677,358.915,487.87,358.915,487.87z"/>
			</g>
			<g>
				<path style="fill:#E6E7E8;" d="M201.809,387.432l-1.49-4.981l18.1-5.415l1.492,4.984c0,0,19.951,20.688,21.687,26.494
					l0.38,1.265l3.024,10.122l19.184,64.147c0.522,1.742-0.469,3.577-2.212,4.099l-37.061,11.082
					c-1.744,0.52-3.578-0.469-4.099-2.211l-19.184-64.149l-3.026-10.12l-0.378-1.267
					C196.49,415.676,201.809,387.432,201.809,387.432z"/>
				<g>
					<g>
						<path style="fill:#34BFBF;" d="M198.764,370.94l2.455,8.207l2.106-0.631l-2.527-8.457l2.105-0.63l2.53,8.458l2.108-0.629
							l-2.529-8.458l2.107-0.631l2.529,8.457l2.108-0.63l-2.529-8.457l2.109-0.631l2.527,8.457l2.109-0.63l-2.442-8.165
							c1.915,0.132,3.64,1.419,4.22,3.368l1.187,3.976l-20.766,6.21l-1.188-3.975C196.385,374.158,197.163,372.087,198.764,370.94z"
							/>
						<path style="fill:#2C9996;" d="M213.863,375.366l-2.527-8.457l0.515-0.154c0.56-0.168,1.128-0.222,1.679-0.185l2.442,8.165
							L213.863,375.366z"/>
						
							<rect x="208.337" y="367.669" transform="matrix(0.9581 -0.2864 0.2864 0.9581 -97.805 75.5835)" style="fill:#2C9996;" width="2.199" height="8.827"/>
						
							<rect x="204.122" y="368.93" transform="matrix(0.958 -0.2866 0.2866 0.958 -98.396 74.4831)" style="fill:#2C9996;" width="2.2" height="8.828"/>
						<path style="fill:#2C9996;" d="M201.219,379.147l-2.455-8.207c0.417-0.297,0.885-0.537,1.402-0.691l0.632-0.189l2.527,8.457
							L201.219,379.147z"/>
					</g>
					
						<rect x="198.017" y="376.229" transform="matrix(0.9581 -0.2865 0.2865 0.9581 -99.5434 75.6784)" style="fill:#2C9996;" width="21.676" height="3.589"/>
				</g>
				<path style="fill:#FFFFFF;" d="M233.968,411.789l-0.358-1.189c-1.557-5.215-18.723-23.18-20.29-24.81l-1.238-4.144l3.655-1.091
					l0.734,2.45c0,0,19.792,20.521,21.514,26.283l0.374,1.254l3.001,10.04l18.064,60.398l-4.439,1.326
					c-0.018-0.21-0.058-0.422-0.121-0.634l-18.05-60.359L233.968,411.789z"/>
				
					<rect x="206.79" y="423.141" transform="matrix(0.9581 -0.2865 0.2865 0.9581 -118.3971 84.4635)" style="fill:#34BFBF;" width="45.27" height="47.343"/>
				<polygon style="fill:#52D8D5;" points="239.046,468.681 257.895,463.006 244.329,417.649 225.48,423.323 				"/>
				<path style="fill:#BCBEC0;" d="M199.366,385.45c0.171,0.574,0.776,0.899,1.351,0.728l19.416-5.807
					c0.574-0.172,0.903-0.777,0.73-1.351l0,0c-0.172-0.573-0.778-0.898-1.351-0.727l-19.418,5.807
					C199.521,384.27,199.194,384.875,199.366,385.45L199.366,385.45z"/>
			</g>
			<g>
				<g>
					<path style="fill:#FED600;" d="M357.584,484.352l0.262-0.603c0,0-17.968-20.362-51.804-16.486
						c-29.964,3.429-44.781,30.017-44.781,30.017l0.998,1.227c5.291-6.026,20.737-21.147,44.63-23.886
						C331.512,471.801,349.57,479.792,357.584,484.352z"/>
					<path style="fill:#FBC71C;" d="M307.762,482.247c21.104-2.414,38.865,0.723,49.249,3.428l0.573-1.323
						c-8.013-4.56-26.072-12.552-50.695-9.731c-23.892,2.739-39.339,17.86-44.63,23.886l0.973,1.199
						C270.658,494.309,286.502,484.678,307.762,482.247z"/>
					<path style="fill:#F9A01B;" d="M307.51,486.906c18.268-2.093,48.382,1.364,48.382,1.364l1.119-2.595
						c-10.384-2.705-28.145-5.842-49.249-3.428c-21.26,2.432-37.104,12.063-44.53,17.46l0.703,0.863
						C263.934,500.57,288.22,489.112,307.51,486.906z"/>
					<path style="fill:#475324;" d="M357.885,483.724l-2.207,4.525c0.377,0.132,1.053,0.291,1.472,0.245
						c1.431-0.166,2.469-1.407,2.311-2.773C359.352,484.793,358.72,484.057,357.885,483.724z"/>
					<polygon style="fill:#FED600;" points="263.866,499.235 261.516,501.194 260.219,499.125 262.636,497.478 					"/>
				</g>
				<g>
					<path style="fill:#FED600;" d="M348.699,456.941l0.076-0.655c0,0-23.074-14.317-54.355-0.854
						c-27.701,11.925-34.226,41.654-34.226,41.654l1.309,0.888c3.33-7.297,13.759-26.225,35.846-35.736
						C320.116,452.437,339.709,454.885,348.699,456.941z"/>
					<path style="fill:#FBC71C;" d="M300.384,469.288c19.514-8.401,37.424-10.516,48.149-10.914l0.166-1.433
						c-8.99-2.056-28.583-4.504-51.35,5.297c-22.087,9.511-32.516,28.44-35.846,35.736l1.277,0.869
						C268.335,491.534,280.729,477.742,300.384,469.288z"/>
					<path style="fill:#F9A01B;" d="M301.488,473.818c16.889-7.267,46.718-12.641,46.718-12.641l0.327-2.803
						c-10.725,0.398-28.635,2.513-48.149,10.914c-19.654,8.454-32.049,22.246-37.605,29.555l0.92,0.625
						C263.699,499.468,283.649,481.495,301.488,473.818z"/>
					<path style="fill:#475324;" d="M348.807,456.25l-0.812,4.969c0.402,0.021,1.094-0.024,1.485-0.189
						c1.321-0.57,1.954-2.06,1.41-3.322C350.522,456.854,349.703,456.332,348.807,456.25z"/>
					<polygon style="fill:#FED600;" points="263.221,498.646 261.538,501.201 259.698,499.591 261.538,497.317 					"/>
				</g>
				<g>
					<path style="fill:#FED600;" d="M331.348,432.932l-0.115-0.65c0,0-26.19-7.172-52.36,14.62
						c-23.177,19.299-20.989,49.658-20.989,49.658l1.509,0.478c1.12-7.941,5.746-29.052,24.223-44.444
						C302.66,436.732,322.142,433.513,331.348,432.932z"/>
					<path style="fill:#FBC71C;" d="M288.526,458.489c16.325-13.591,32.897-20.707,43.069-24.137l-0.247-1.42
						c-9.206,0.581-28.687,3.8-47.732,19.661c-18.477,15.393-23.102,36.503-24.223,44.444l1.472,0.471
						C264.114,488.922,272.082,472.18,288.526,458.489z"/>
					<path style="fill:#F9A01B;" d="M290.873,462.522c14.129-11.764,41.207-25.387,41.207-25.387l-0.485-2.784
						c-10.171,3.43-26.744,10.546-43.069,24.137c-16.444,13.692-24.412,30.434-27.661,39.019l1.057,0.337
						C261.922,497.845,275.948,474.946,290.873,462.522z"/>
					<path style="fill:#475324;" d="M331.251,432.243l0.637,4.993c0.388-0.096,1.039-0.335,1.365-0.604
						c1.108-0.922,1.292-2.529,0.41-3.587C333.069,432.331,332.136,432.061,331.251,432.243z"/>
					<polygon style="fill:#FED600;" points="261.232,497.195 260.341,500.122 258.122,499.103 259.24,496.401 					"/>
				</g>
				<g>
					<path style="fill:#FED600;" d="M305.262,412.381l-0.324-0.576c0,0-27.081,1.965-44.494,31.232
						c-15.42,25.919-3.243,53.814-3.243,53.814l1.582-0.049c-1.589-7.861-4.261-29.308,8.027-49.98
						C279.483,425.523,296.779,415.994,305.262,412.381z"/>
					<path style="fill:#FBC71C;" d="M273.406,450.749c10.864-18.26,24.115-30.488,32.559-37.112l-0.703-1.256
						c-8.483,3.613-25.779,13.142-38.453,34.44c-12.288,20.672-9.616,42.119-8.027,49.98l1.545-0.047
						C260.53,487.577,262.462,469.136,273.406,450.749z"/>
					<path style="fill:#F9A01B;" d="M276.962,453.767c9.399-15.801,30.39-37.667,30.39-37.667l-1.387-2.463
						c-8.444,6.624-21.695,18.852-32.559,37.112c-10.944,18.388-12.876,36.828-13.078,46.006l1.11-0.036
						C261.438,496.718,267.03,470.453,276.962,453.767z"/>
					<path style="fill:#475324;" d="M304.944,411.762l2.261,4.494c0.337-0.218,0.871-0.661,1.087-1.024
						c0.741-1.237,0.377-2.812-0.804-3.517C306.683,411.239,305.715,411.299,304.944,411.762z"/>
					<polygon style="fill:#FED600;" points="260.572,496.336 260.706,499.392 258.274,499.17 258.427,496.25 					"/>
				</g>
				<g>
					<path style="fill:#FED600;" d="M267.166,400.164l-0.527-0.397c0,0-23.974,12.751-28.058,46.563
						c-3.618,29.943,18.803,50.523,18.803,50.523l1.426-0.683c-4.633-6.545-15.756-25.078-12.875-48.954
						C248.908,422.61,260.87,406.901,267.166,400.164z"/>
					<path style="fill:#FBC71C;" d="M253.555,448.139c2.548-21.09,9.721-37.638,14.765-47.111l-1.154-0.863
						c-6.296,6.737-18.258,22.445-21.231,47.051c-2.881,23.876,8.242,42.409,12.875,48.954l1.391-0.667
						C256.678,487.028,250.985,469.381,253.555,448.139z"/>
					<path style="fill:#F9A01B;" d="M258.026,449.46c2.205-18.252,12.557-46.74,12.557-46.74l-2.264-1.692
						c-5.044,9.473-12.216,26.021-14.765,47.111c-2.57,21.243,3.122,38.89,6.645,47.365l1.005-0.48
						C261.205,495.023,255.695,468.739,258.026,449.46z"/>
					<path style="fill:#475324;" d="M266.624,399.726l3.887,3.197c0.22-0.337,0.529-0.956,0.58-1.376
						c0.175-1.431-0.795-2.724-2.157-2.891C268.005,398.546,267.145,398.99,266.624,399.726z"/>
					<polygon style="fill:#FED600;" points="260.254,495.021 261.618,497.763 259.302,498.542 258.26,495.811 					"/>
				</g>
			</g>
			<g>
				<g>
					<path style="fill:#9CD62D;" d="M254.527,584.126c-3.453-2.357-5.262-5.157-7.151-9.047c-1.958-4.04-1.441-4.389,0.408-8.233
						c1.683-3.497,1.784-5.5-0.62-8.621c-4.951-6.425-8.324-12.038-2.94-18.934c3.568-4.569,5.173-8.333,4.518-14.497
						c-0.34-3.192-1.692-6.513-2.78-9.503c-0.538-1.483-2.277-3.913-1.904-5.555c0.605-2.667,6.681-4.873,9.024-5.982
						c3.98-1.881,7.111-3.141,8.051-7.694c0.803-3.878,0.157-8.922,0.564-13.396c-21.233,9.85-36.431,30.905-37.651,55.974
						c-1.433,29.444,16.849,55.251,43.191,64.566c-1.115-4.313-1.712-9.004-3.387-11.557
						C261.51,588.073,257.841,586.386,254.527,584.126z"/>
					<path style="fill:#9CD62D;" d="M295.261,486.031c0.783,1.245,2.799,3.154,2.8,4.614c0.005,2.206-1.492,2.119-2.493,3.807
						c-2.476,4.178,2.856,6.632,3.494,11.004c0.575,3.988-4.308,7.024-4.545,10.8c-0.284,4.581,6.105,6.116,7.88,9.74
						c2.749,5.62-4.806,11.278-5.505,16.728c-0.693,5.382,3.748,8.385,6.111,12.395c4.284,7.273-7.493,8.376-9.061,14.521
						c-1.219,4.773,4.936,8.488,3.784,13.698c-1.072,4.834-8.63,7.742-7.386,13.185c0.645,2.824,4.304,3.934,5.112,6.68
						c0.07,0.239,0.096,0.483,0.124,0.728c0.503-0.296,1.008-0.609,1.523-0.925c3.179-1.964,7.088-2.496,10.101-4.414
						c3.568-2.265,4.746-5.383,2.668-9.044c-2.313-4.076-2.023-5.315,1.779-8.7c3.682-3.275,8.47-6.5,9.89-11.33
						c1.569-5.323-1.717-9.83-2.27-14.918c-0.499-4.631,2.713-9.645,4.866-13.495c2.441-4.366,2.77-7.319,0.647-11.969
						c-1.574-3.45-3.777-4.962-2.296-8.728c1.275-3.237,3.685-5.759,2.145-9.629c-1.053-2.645-3.779-4.433-6.111-5.897
						c-5.162-3.233-4.732-7.146-7.864-11.952c-2.492-3.823-0.292-6.491-3.255-10.188c-1.426-1.781-7.202-2.942-9.461-4.227
						c-0.844-0.48-1.703-0.931-2.565-1.372c0.029,0.22,0.051,0.44,0.053,0.658C295.45,481.931,292.675,481.923,295.261,486.031z"/>
					<path style="fill:#9CD62D;" d="M277.931,590.463c2.338-2.196,5.8-3.255,3.254-6.111c-9.668-10.843-2.949-17.268-0.373-20.077
						c1.927-2.099,6.156-4.12,7.161-6.91c2.454-6.806-8.729-10.923-7.296-18.293c1.35-6.942,10.252-11.76,5.8-18.335
						c-4.27-6.31-5.118-9.384-0.542-15.672c1.683-2.31,2.429-3.757,1.052-6.554c-0.854-1.735-3.96-3.489-4.077-5.336
						c-0.161-2.575,3.76-3.888,4.229-5.974c0.699-3.12-2.612-4.021-3.672-6.399c-0.173,0.105-0.343,0.207-0.516,0.315
						c-3.178,1.965-7.087,2.498-10.101,4.413c-3.57,2.265-4.747,5.384-2.67,9.045c2.313,4.076,2.026,5.318-1.779,8.698
						c-3.681,3.277-8.468,6.501-9.889,11.333c-1.567,5.324,1.72,9.829,2.269,14.918c0.5,4.63-2.714,9.644-4.863,13.494
						c-2.443,4.367-2.772,7.319-0.649,11.969c1.575,3.45,3.775,4.961,2.294,8.727c-1.274,3.237-3.683,5.758-2.143,9.629
						c1.055,2.646,3.78,4.433,6.111,5.896c5.159,3.236,4.729,7.147,7.864,11.953c2.49,3.823,0.29,6.491,3.253,10.187
						c1.428,1.782,7.203,2.943,9.463,4.227c0.601,0.341,1.21,0.671,1.82,0.993c-0.763-1.256-1.727-2.524-2.979-4.011
						C277.568,598.572,272.947,595.147,277.931,590.463z"/>
					<path style="fill:#9CD62D;" d="M353.628,544.943c1.388-28.506-15.713-53.605-40.716-63.626
						c1.052,4.204,1.664,8.685,3.288,11.161c2.341,3.572,6.01,5.261,9.323,7.52c3.453,2.356,5.262,5.157,7.15,9.045
						c1.959,4.041,1.444,4.39-0.408,8.234c-1.681,3.497-1.784,5.5,0.621,8.621c4.951,6.426,8.323,12.038,2.94,18.936
						c-3.566,4.569-5.172,8.331-4.518,14.496c0.339,3.193,1.692,6.513,2.781,9.505c0.538,1.483,2.277,3.912,1.903,5.552
						c-0.603,2.667-6.681,4.875-9.023,5.984c-3.981,1.882-7.111,3.141-8.052,7.695c-0.697,3.375-0.299,7.634-0.453,11.633
						C338.389,589.399,352.456,569.025,353.628,544.943z"/>
					<path style="fill:#33510C;" d="M331.308,559.33c-0.654-6.165,0.952-9.927,4.518-14.496c5.383-6.898,2.011-12.51-2.94-18.936
						c-2.405-3.121-2.303-5.124-0.621-8.621c1.851-3.844,2.366-4.194,0.408-8.234c-1.887-3.888-3.697-6.689-7.15-9.045
						c-3.313-2.259-6.982-3.947-9.323-7.52c-1.624-2.476-2.236-6.957-3.288-11.161c-5.509-2.21-11.396-3.701-17.56-4.317
						c-0.104-0.012-0.208-0.014-0.31-0.025c-1.007-0.095-2.018-0.176-3.038-0.225c-1.039-0.051-2.072-0.071-3.101-0.073
						c-1.599-0.002-3.189,0.068-4.761,0.183c-7.942,0.572-15.515,2.586-22.443,5.801c-0.407,4.474,0.239,9.518-0.564,13.396
						c-0.94,4.554-4.071,5.813-8.051,7.694c-2.343,1.109-8.419,3.315-9.024,5.982c-0.373,1.642,1.366,4.072,1.904,5.555
						c1.089,2.99,2.44,6.311,2.78,9.503c0.655,6.165-0.95,9.928-4.518,14.497c-5.384,6.896-2.011,12.509,2.94,18.934
						c2.404,3.122,2.303,5.124,0.62,8.621c-1.849,3.844-2.366,4.194-0.408,8.233c1.889,3.89,3.698,6.69,7.151,9.047
						c3.314,2.26,6.983,3.947,9.324,7.519c1.674,2.553,2.272,7.244,3.387,11.557c5.293,1.872,10.914,3.069,16.765,3.505
						c0.055,0.003,0.114,0.007,0.168,0.013c0.502,0.035,0.998,0.086,1.502,0.111c1.872,0.091,3.727,0.081,5.569,0.016
						c1.354-0.05,2.702-0.13,4.038-0.263c8.266-0.822,16.093-3.219,23.186-6.886c0.153-3.999-0.244-8.257,0.453-11.633
						c0.941-4.554,4.071-5.813,8.052-7.695c2.342-1.108,8.42-3.316,9.023-5.984c0.373-1.641-1.365-4.069-1.903-5.552
						C333,565.843,331.647,562.523,331.308,559.33z M287.973,557.365c-1.005,2.791-5.234,4.811-7.161,6.91
						c-2.575,2.809-9.295,9.234,0.373,20.077c2.546,2.856-0.916,3.915-3.254,6.111c-4.984,4.684-0.363,8.109,3.023,12.125
						c1.252,1.487,2.216,2.756,2.979,4.011c-0.61-0.322-1.219-0.652-1.82-0.993c-2.26-1.284-8.035-2.445-9.463-4.227
						c-2.963-3.695-0.763-6.363-3.253-10.187c-3.134-4.806-2.705-8.717-7.864-11.953c-2.331-1.463-5.057-3.25-6.111-5.896
						c-1.54-3.87,0.869-6.392,2.143-9.629c1.482-3.766-0.719-5.276-2.294-8.727c-2.123-4.651-1.795-7.603,0.649-11.969
						c2.149-3.85,5.363-8.864,4.863-13.494c-0.55-5.089-3.836-9.594-2.269-14.918c1.421-4.832,6.208-8.055,9.889-11.333
						c3.805-3.381,4.092-4.622,1.779-8.698c-2.077-3.662-0.9-6.781,2.67-9.045c3.014-1.915,6.923-2.449,10.101-4.413
						c0.173-0.108,0.343-0.21,0.516-0.315c1.06,2.378,4.371,3.279,3.672,6.399c-0.468,2.086-4.39,3.399-4.229,5.974
						c0.116,1.847,3.223,3.601,4.077,5.336c1.377,2.798,0.63,4.244-1.052,6.554c-4.577,6.288-3.728,9.362,0.542,15.672
						c4.452,6.575-4.45,11.393-5.8,18.335C279.244,546.442,290.427,550.559,287.973,557.365z M324.132,541.105
						c-2.153,3.85-5.364,8.864-4.866,13.495c0.553,5.088,3.839,9.595,2.27,14.918c-1.42,4.83-6.208,8.055-9.89,11.33
						c-3.802,3.384-4.092,4.623-1.779,8.7c2.078,3.661,0.9,6.779-2.668,9.044c-3.013,1.918-6.922,2.451-10.101,4.414
						c-0.515,0.316-1.02,0.63-1.523,0.925c-0.027-0.245-0.053-0.489-0.124-0.728c-0.809-2.745-4.467-3.856-5.112-6.68
						c-1.244-5.443,6.314-8.35,7.386-13.185c1.152-5.21-5.003-8.925-3.784-13.698c1.568-6.146,13.345-7.249,9.061-14.521
						c-2.363-4.01-6.803-7.013-6.111-12.395c0.699-5.45,8.254-11.109,5.505-16.728c-1.775-3.624-8.164-5.159-7.88-9.74
						c0.237-3.777,5.12-6.812,4.545-10.8c-0.638-4.373-5.97-6.827-3.494-11.004c1.001-1.689,2.498-1.602,2.493-3.807
						c-0.001-1.46-2.017-3.369-2.8-4.614c-2.586-4.108,0.19-4.1,0.163-8.227c-0.002-0.218-0.023-0.438-0.053-0.658
						c0.862,0.44,1.721,0.892,2.565,1.372c2.259,1.285,8.036,2.446,9.461,4.227c2.963,3.697,0.763,6.365,3.255,10.188
						c3.131,4.806,2.701,8.719,7.864,11.952c2.332,1.464,5.059,3.251,6.111,5.897c1.541,3.87-0.87,6.392-2.145,9.629
						c-1.481,3.765,0.721,5.278,2.296,8.728C326.903,533.786,326.574,536.739,324.132,541.105z"/>
				</g>
				<g>
					<path style="fill:#FFFFFF;" d="M283.775,484.461c0.065-5.879-11.357-3.262-19.043,0.055c-7.316,3.157-11.64,9.195-9.243,13.443
						c0,0,7.746-5.233,10.36-6.681C272.663,487.518,283.775,484.461,283.775,484.461z"/>
				</g>
				<path style="opacity:0.3;fill:#7B54A8;" d="M300.197,482.304c-5.858-0.249-16.119,19.028-9.995,57.388
					c6.124,38.36,15.362,53.716,17.993,55.538c2.631,1.822-28.844,0-28.844,0s2.537-11.855-3.316-56.254
					c-5.854-44.4-7.626-55.956-14.337-56.314C254.986,482.304,300.197,482.304,300.197,482.304z"/>
			</g>
			<g>
				
					<rect x="344.645" y="533.789" transform="matrix(0.0827 -0.9966 0.9966 0.0827 -194.005 908.9357)" style="fill:#22CBFF;" width="104.204" height="52.132"/>
				
					<rect x="393.636" y="473.803" transform="matrix(0.0827 -0.9966 0.9966 0.0827 -129.6636 858.864)" style="fill:#5AE0FF;" width="16.183" height="52.131"/>
				<path style="fill:#00AEEF;" d="M428.346,493.958c0.343-5.836-4.007-10.909-9.863-11.394l-30.429-2.526
					c-5.852-0.488-10.979,3.8-11.602,9.613L428.346,493.958z"/>
				<path style="opacity:0.5;fill:#68113E;" d="M411.116,500.65c-0.251,3.006-4.661,5.093-9.849,4.662
					c-5.191-0.433-9.191-3.219-8.937-6.222c0.251-3.008,4.66-5.092,9.849-4.661C407.371,494.858,411.367,497.644,411.116,500.65z"/>
				<path style="fill:#A8BECC;" d="M394.599,492.282l-0.522,6.278l0,0c-0.206,2.466,3.081,4.755,7.336,5.109
					c4.254,0.353,7.872-1.364,8.077-3.826l0,0l0.521-6.281L394.599,492.282z"/>
				<path style="fill:#FFFFFF;" d="M410.011,493.561c-0.203,2.468-3.819,4.181-8.076,3.828c-4.259-0.355-7.542-2.642-7.337-5.107
					c0.203-2.469,3.819-4.18,8.076-3.827C406.935,488.806,410.215,491.093,410.011,493.561z"/>
				
					<rect x="398.473" y="513.715" transform="matrix(0.0826 -0.9966 0.9966 0.0826 -155.9383 881.0725)" style="fill:#FFFFFF;" width="4.282" height="23.049"/>
				
					<rect x="397.627" y="518.528" transform="matrix(0.0827 -0.9966 0.9966 0.0827 -166.9074 889.5465)" style="fill:#FFFFFF;" width="4.285" height="33.826"/>
				<path style="fill:#FFFFFF;" d="M406.756,572.177c-0.575,6.917-6.643,12.061-13.556,11.49
					c-6.911-0.573-12.047-6.643-11.472-13.56c0.576-6.917,6.646-12.062,13.558-11.49
					C402.197,559.187,407.332,565.258,406.756,572.177z"/>
			</g>
			<path style="opacity:0.3;fill:#7B54A8;" d="M344.729,508.736c0.161,2.216,0.192,4.466,0.081,6.742
				c-0.987,20.28-12.833,37.439-29.613,46.112c-5.974,3.088-12.565,5.107-19.526,5.799c-1.125,0.112-2.26,0.179-3.4,0.221
				c-1.551,0.055-3.113,0.063-4.69-0.013c-0.424-0.021-0.842-0.064-1.264-0.094c-0.046-0.005-0.096-0.008-0.142-0.011
				c-4.927-0.367-9.66-1.375-14.118-2.952c-22.184-7.845-37.581-29.578-36.374-54.375c0.111-2.282,0.368-4.522,0.745-6.718
				c-7.225,9.92-11.741,21.997-12.383,35.188c-1.433,29.444,16.849,55.251,43.191,64.566c5.293,1.872,10.914,3.069,16.764,3.505
				c0.055,0.003,0.113,0.007,0.168,0.013c0.502,0.035,0.998,0.086,1.502,0.111c1.872,0.091,3.727,0.081,5.568,0.016
				c1.354-0.05,2.702-0.13,4.038-0.263c8.266-0.822,16.093-3.219,23.186-6.886c19.925-10.299,33.992-30.674,35.164-54.755
				C354.27,531.759,350.95,519.308,344.729,508.736z"/>
		</g>
		<g>
			<path style="fill:#B51030;" d="M536.01,472.128c0,5.514,4.469,9.982,9.98,9.982h81.024c5.511,0,9.98-4.468,9.98-9.982l0,0
				c0-5.51-4.469-9.979-9.98-9.979H545.99C540.479,462.15,536.01,466.618,536.01,472.128L536.01,472.128z"/>
		</g>
		<g>
			<g>
				<path style="fill:#8FA3C1;" d="M574.749,744.855H243.738c-4.142,0-7.5-3.358-7.5-7.5c0-4.142,3.358-7.5,7.5-7.5h331.012
					c2.938,0,5.308-0.977,6.672-2.751c1.365-1.774,1.701-4.315,0.947-7.155l-20.537-77.356c-3.224-12.144-2.269-30.862,2.175-42.615
					l91.466-241.895c5.077-13.429,17.396-23.555,28.654-23.555h14.565c4.142,0,7.5,3.358,7.5,7.5s-3.358,7.5-7.5,7.5h-14.565
					c-4.339,0-11.672,6.054-14.623,13.86l-91.466,241.895c-3.315,8.767-4.113,24.402-1.708,33.461l20.537,77.356
					c1.948,7.336,0.652,14.68-3.554,20.149C589.105,741.719,582.339,744.855,574.749,744.855z"/>
			</g>
		</g>
		<g>
			<g>
				<path style="fill:#BBD7EA;" d="M568.749,735.855H240.738c-1.933,0-3.5-1.567-3.5-3.5c0-1.933,1.567-3.5,3.5-3.5h328.012
					c4.213,0,7.723-1.538,9.883-4.329c2.161-2.792,2.769-6.575,1.712-10.653l-19.768-76.295c-2.92-11.269-1.946-29.295,2.172-40.184
					l91.466-241.895c4.446-11.758,15.389-20.969,24.912-20.969h14.565c1.933,0,3.5,1.567,3.5,3.5c0,1.933-1.567,3.5-3.5,3.5h-14.565
					c-6.584,0-14.994,7.531-18.365,16.445l-91.466,241.895c-3.621,9.577-4.511,26.041-1.943,35.952l19.768,76.295
					c1.612,6.222,0.564,12.15-2.952,16.693C580.652,733.353,575.176,735.855,568.749,735.855z"/>
			</g>
		</g>
		<g>
			<path style="fill:#FFFFFF;stroke:#414042;stroke-width:14;stroke-miterlimit:10;" d="M308.33,779.989
				c0,13.647-11.064,24.709-24.712,24.709c-13.648,0-24.71-11.063-24.71-24.709c0-13.648,11.063-24.711,24.71-24.711
				C297.266,755.278,308.33,766.341,308.33,779.989z"/>
			<path style="fill:#8BA9B2;" d="M294.365,779.99c0,5.932-4.811,10.743-10.744,10.743c-5.936,0-10.746-4.811-10.746-10.743
				c0-5.935,4.81-10.747,10.746-10.747C289.554,769.243,294.365,774.055,294.365,779.99z"/>
		</g>
		<path style="fill:#BBD7EA;" d="M286.788,734.218v41.516c0,4.95-4.038,8.684-8.973,8.298l-20.386-1.596
			c-4.935-0.386-8.972-4.752-8.972-9.702v-38.515H286.788z"/>
		<g>
			<path style="fill:#FFFFFF;stroke:#414042;stroke-width:14;stroke-miterlimit:10;" d="M568.997,779.989
				c0,13.647-11.064,24.709-24.712,24.709c-13.648,0-24.71-11.063-24.71-24.709c0-13.648,11.063-24.711,24.71-24.711
				C557.933,755.278,568.997,766.341,568.997,779.989z"/>
			<path style="fill:#8BA9B2;" d="M555.032,779.99c0,5.932-4.811,10.743-10.744,10.743c-5.936,0-10.746-4.811-10.746-10.743
				c0-5.935,4.81-10.747,10.746-10.747C550.22,769.243,555.032,774.055,555.032,779.99z"/>
		</g>
		<path style="fill:#BBD7EA;" d="M547.455,734.218v38.515c0,4.95-4.05,9-9,9h-20.331c-4.95,0-9-4.05-9-9v-38.515H547.455z"/>
		<g>
			<path style="fill:#FFB287;" d="M585.897,408.656c-35.425-28.373-36.631-37.824-36.492-77.799l18,0.063
				c-0.125,35.991-0.138,39.753,29.745,63.688L585.897,408.656z"/>
		</g>
		<g>
			<path style="fill:#F58D6C;" d="M567.405,332.919l-18-0.062c0.005-1.377,0.01-1.689,0.015-1.945
				c0.004-0.268,0.007-0.466,0.007-2.105h18c0,1.873-0.004,2.099-0.01,2.406C567.414,331.438,567.409,331.712,567.405,332.919z"/>
		</g>
		<g>
			<g>
				<path style="fill:#8FA3C1;" d="M288.832,610.989c-1.979,0-3.698-1.468-3.961-3.483l-25.605-196.091
					c-0.286-2.191,1.258-4.198,3.448-4.484c2.187-0.286,4.198,1.258,4.484,3.449l25.605,196.091c0.286,2.19-1.258,4.198-3.448,4.484
					C289.179,610.978,289.004,610.989,288.832,610.989z"/>
			</g>
			<g>
				<path style="fill:#BBD7EA;" d="M286.835,608.989c-0.99,0-1.849-0.734-1.981-1.741l-25.605-196.091
					c-0.143-1.095,0.629-2.099,1.724-2.242c1.096-0.145,2.099,0.629,2.242,1.724L288.82,606.73c0.143,1.096-0.629,2.099-1.724,2.242
					C287.008,608.983,286.921,608.989,286.835,608.989z"/>
			</g>
			<g>
				<path style="fill:#8FA3C1;" d="M346.67,613.909c-2.143,0-3.917-1.697-3.995-3.856l-7.048-195.572
					c-0.08-2.208,1.646-4.062,3.853-4.141c2.201-0.084,4.062,1.646,4.141,3.853l7.048,195.572c0.08,2.208-1.646,4.062-3.853,4.141
					C346.768,613.908,346.719,613.909,346.67,613.909z"/>
			</g>
			<g>
				<path style="fill:#BBD7EA;" d="M344.672,611.909c-1.071,0-1.958-0.849-1.997-1.928l-7.048-195.572
					c-0.04-1.104,0.823-2.031,1.927-2.071c1.109-0.038,2.031,0.823,2.071,1.927l7.048,195.572c0.04,1.104-0.823,2.031-1.927,2.071
					C344.72,611.909,344.696,611.909,344.672,611.909z"/>
			</g>
			<g>
				<path style="fill:#8FA3C1;" d="M400.989,619.81c-0.091,0-0.183-0.003-0.275-0.009c-2.204-0.149-3.87-2.057-3.72-4.262
					l13.965-205.823c0.149-2.204,2.063-3.875,4.262-3.72c2.204,0.149,3.87,2.057,3.72,4.262l-13.965,205.823
					C404.832,618.193,403.074,619.81,400.989,619.81z"/>
			</g>
			<g>
				<path style="fill:#BBD7EA;" d="M398.987,617.81c-0.045,0-0.091-0.002-0.137-0.005c-1.102-0.075-1.935-1.029-1.86-2.131
					l13.965-205.823c0.074-1.102,1.025-1.939,2.131-1.86c1.102,0.075,1.935,1.029,1.86,2.131L400.98,615.946
					C400.909,617.001,400.03,617.81,398.987,617.81z"/>
			</g>
			<g>
				<path style="fill:#BBD7EA;" d="M455.319,624.085c-0.227,0-0.456-0.019-0.687-0.059c-2.177-0.377-3.636-2.447-3.259-4.624
					l36.325-209.817c0.377-2.177,2.447-3.637,4.624-3.259c2.177,0.377,3.636,2.447,3.259,4.624l-36.325,209.817
					C458.918,622.712,457.228,624.085,455.319,624.085z"/>
			</g>
			<g>
				<path style="fill:#8FA3C1;" d="M457.316,622.084c-0.113,0-0.228-0.01-0.344-0.03c-1.088-0.188-1.818-1.223-1.63-2.312
					l7.66-44.247c0.189-1.089,1.225-1.818,2.312-1.63c1.088,0.188,1.818,1.223,1.63,2.312l-7.66,44.247
					C459.116,621.398,458.271,622.084,457.316,622.084z"/>
			</g>
			<g>
				<path style="fill:#8FA3C1;" d="M464.977,577.838c-0.113,0-0.228-0.009-0.344-0.029c-1.088-0.188-1.818-1.223-1.63-2.312
					l28.665-165.571c0.189-1.089,1.224-1.819,2.312-1.63c1.088,0.189,1.818,1.223,1.63,2.312l-28.665,165.571
					C466.776,577.152,465.931,577.838,464.977,577.838z"/>
			</g>
			<g>
				<path style="fill:#BBD7EA;" d="M509.111,628.316c-0.352,0-0.709-0.047-1.065-0.145c-2.13-0.587-3.381-2.789-2.794-4.919
					l59.532-216.061c0.587-2.13,2.789-3.381,4.919-2.794c2.13,0.587,3.381,2.789,2.794,4.919l-59.532,216.061
					C512.476,627.152,510.866,628.316,509.111,628.316z"/>
			</g>
			<g>
				<path style="fill:#8FA3C1;" d="M512.11,626.316c-0.176,0-0.355-0.023-0.532-0.072c-1.065-0.293-1.69-1.394-1.397-2.459
					l59.532-216.061c0.293-1.065,1.396-1.69,2.459-1.397c1.065,0.293,1.69,1.395,1.397,2.46l-59.532,216.061
					C513.792,625.734,512.987,626.316,512.11,626.316z"/>
			</g>
		</g>
		<g>
			<path style="fill:#8FA3C1;" d="M559.974,633.552c-0.133,0-0.266-0.005-0.401-0.016l-327.814-26.022
				c-2.753-0.219-4.807-2.627-4.589-5.38c0.219-2.752,2.626-4.804,5.38-4.589l327.814,26.022c2.753,0.218,4.807,2.627,4.589,5.38
				C564.745,631.566,562.556,633.552,559.974,633.552z"/>
		</g>
		<g>
			<path style="fill:#C7E2ED;" d="M234.152,602.031c-1.141,0-2.171-0.785-2.435-1.944l-43.828-192.074
				c-0.307-1.346,0.535-2.686,1.881-2.993c1.348-0.308,2.686,0.535,2.993,1.881l43.828,192.074c0.307,1.346-0.535,2.686-1.881,2.993
				C234.523,602.01,234.336,602.031,234.152,602.031z"/>
		</g>
		<g>
			<path style="fill:#8FA3C1;" d="M579.974,562.548c-0.084,0-0.168-0.003-0.253-0.008l-358.054-22.331
				c-2.205-0.137-3.881-2.036-3.743-4.241c0.137-2.205,2.043-3.882,4.241-3.743l358.055,22.331c2.205,0.137,3.881,2.036,3.743,4.241
				C583.83,560.917,582.069,562.548,579.974,562.548z"/>
		</g>
		<g>
			<path style="fill:#BBD7EA;" d="M579.972,558.548c-0.042,0-0.084-0.001-0.126-0.004l-358.978-22.331
				c-1.102-0.069-1.94-1.018-1.872-2.12c0.068-1.102,1.008-1.943,2.12-1.872l358.978,22.331c1.102,0.069,1.94,1.018,1.872,2.12
				C581.9,557.732,581.02,558.548,579.972,558.548z"/>
		</g>
		<g>
			<path style="fill:#8FA3C1;" d="M603.522,499.531c-0.059,0-0.118-0.001-0.178-0.004L208.74,482.295
				c-2.207-0.096-3.918-1.964-3.822-4.171c0.096-2.207,1.967-3.917,4.171-3.822l394.604,17.232c2.207,0.096,3.918,1.964,3.822,4.171
				C607.421,497.853,605.65,499.531,603.522,499.531z"/>
		</g>
		<g>
			<path style="fill:#BBD7EA;" d="M603.498,495.531c-0.029,0-0.059-0.001-0.088-0.002l-395.582-17.232
				c-1.104-0.048-1.959-0.982-1.911-2.085c0.048-1.104,0.987-1.955,2.085-1.911l395.582,17.232c1.104,0.048,1.959,0.981,1.911,2.085
				C605.448,494.692,604.563,495.531,603.498,495.531z"/>
		</g>
		<g>
			<path style="fill:#BBD7EA;" d="M560.971,628.052c-0.067,0-0.133-0.003-0.201-0.008l-326.814-26.022
				c-1.376-0.11-2.403-1.314-2.294-2.691c0.11-1.376,1.313-2.404,2.691-2.294l326.814,26.022c1.376,0.11,2.403,1.314,2.294,2.691
				C563.357,627.059,562.262,628.052,560.971,628.052z"/>
		</g>
		<polygon style="fill:#FFFFFF;" points="266.668,436.24 262.873,439.046 265.936,462.502 269.676,459.273 		"/>
		<polygon style="fill:#FFFFFF;" points="342.904,505.228 339.024,508.449 339.877,530.345 343.699,526.677 		"/>
		<g>
			<path style="fill:#414042;" d="M644.833,417.957H183.325c-4.142,0-7.5-3.358-7.5-7.5s3.358-7.5,7.5-7.5h461.507
				c4.142,0,7.5,3.358,7.5,7.5S648.975,417.957,644.833,417.957z"/>
		</g>
		<path style="fill:#FFB287;" d="M573.825,404.922c0-9.992,5.182-11.037,15.173-11.037c14.452,0,18.702,0.333,18.327,11.208
			c-0.344,9.986-8.335,14.208-18.327,14.208S573.825,414.914,573.825,404.922z"/>
		<path style="fill:#FF4E62;" d="M664.45,576.844c0.5,4.917,13.035,11.983,16.404,13.192c11.466,4.117,16.404,4.925,20.824,9.021
			c3.83,3.548,1.947,9.052-3.066,11.289c-3.446,1.538-9.58,1.4-18.002,0.957c-21.174-1.112-38.55-4.352-40.66-6.563
			c-4.425-4.636,2.167-21.708,2.375-28.25L664.45,576.844z"/>
		<path style="fill:#6B4538;" d="M703.325,605.219c-0.305,2.381-1.934,3.047-5.044,4.058c-3.629,1.179-9.776,0.165-18.266-0.33
			c-25.356-1.477-38.893-4.163-41.021-6.392c-0.533-0.559-0.458-0.35-0.458-0.35s-0.276,2.076-0.212,3.732
			c-0.041,1.248,0.024,2.566,0.437,2.997c2.231,2.334,8.398,3.75,41.021,6.392c9.947,0.805,15.375,0.918,19.044-0.142
			c3.204-0.926,5.264-1.683,5.016-5.668C703.912,608.424,703.759,607.038,703.325,605.219z"/>
		<path style="fill:#FFEFCC;" d="M642.481,576.49c0,0.354,0.619,6.555,6.061,6.854c6.061,0.333,8.206-6.708,8.206-6.708l-7.66-1.625
			L642.481,576.49z"/>
		<g>
			<path style="fill:#FFB287;" d="M579.825,424.802c-3.314,0-6-2.686-6-6v-16.5c0-3.314,2.686-6,6-6c3.314,0,6,2.686,6,6v16.5
				C585.825,422.116,583.139,424.802,579.825,424.802z"/>
		</g>
		<g>
			<path style="fill:#FFB287;" d="M590.325,424.802c-3.314,0-6-2.686-6-6v-16.5c0-3.314,2.686-6,6-6c3.314,0,6,2.686,6,6v16.5
				C596.325,422.116,593.639,424.802,590.325,424.802z"/>
		</g>
		<g>
			<path style="fill:#FFB287;" d="M601.325,424.802c-3.314,0-6-2.686-6-6v-16.5c0-3.314,2.686-6,6-6c3.314,0,6,2.686,6,6v16.5
				C607.325,422.116,604.639,424.802,601.325,424.802z"/>
		</g>
		<path style="fill:#CE284F;" d="M705.347,483.858c-0.058-1.452-1.27-2.396-2.692-2.099l-34.125,7.134
			c-1.422,0.297-2.586,1.729-2.586,3.182v12.621c0,1.453,1.169,2.424,2.597,2.158l34.853-6.486c1.428-0.266,2.549-1.671,2.491-3.123
			L705.347,483.858z"/>
	</g>
</g>
<path style="fill:#7F2F26;" d="M477.922,254.998c46.264,6.325,55.39-20.759,54.689-48.791c-1.011-40.392,4.055-60.195,4.055-60.195
	l18.29-10.747c-48.156-18.532-67.744,6.621-65.681,58.445C491.694,254.521,477.922,254.998,477.922,254.998z"/>
<path style="fill:#A3412E;" d="M541.408,224.52c0,0-32.95-11.339-34.958-57.898c-1.394-32.317,15.9-83.944,79.116-79.775
	c60.138,3.965,56.309,49.217,56.665,70.375l0.068,4.176c0,0-4.044,29.598-3.987,32.882c0.044,2.51,0.093,5.105,0.149,7.77
	C639.166,238.508,541.408,224.52,541.408,224.52z"/>
<g>
	<path style="fill:#A3412E;" d="M618.699,101.508c25.481,6.493,50.65,36.279,24.359,92.896l-7.966-2.301l-31.047-42.871
		L618.699,101.508z"/>
	<path style="fill:#FFB287;" d="M651.464,188.755c0.128,7.493-5.843,13.671-13.336,13.799c-7.493,0.128-5.793-5.977-5.921-13.47
		s-2.035-13.536,5.458-13.664C645.159,175.292,651.336,181.262,651.464,188.755z"/>
	<path style="fill:#FFB287;" d="M647.28,194.215c0.517,30.329-18.502,58.891-47.795,59.391
		c-32.571,0.556-67.527-27.086-68.045-57.415l-1.257-32.179c-0.517-30.329,24.035-46.128,54.364-46.646l6.262-0.107
		c30.329-0.517,55.405,14.436,55.922,44.765L647.28,194.215z"/>
	<path style="fill:#F58D6C;" d="M617.493,197.221c-0.023-1.137-0.963-1.295-3.705-0.236c-1.258,0.486-3.493,1.068-6.078,1.12
		c-2.586,0.036-4.839-0.47-6.113-0.912c-2.777-0.965-3.711-0.774-3.695,0.362c0.021,1.552,4.88,6.118,9.869,6.06v0.001
		c0.011,0,0.022-0.001,0.033-0.001c0.011,0,0.022,0,0.033,0l0-0.001C612.825,203.501,617.525,198.773,617.493,197.221z"/>
	<g>
		<g>
			<path style="fill:#8E3925;" d="M637.243,166.61c-0.396,0-0.791-0.152-1.091-0.456c-3.396-3.44-7.033-4.331-12.554-3.081
				c-0.825,0.188-1.647-0.33-1.834-1.156c-0.188-0.826,0.33-1.647,1.156-1.834c6.525-1.48,11.279-0.272,15.414,3.917
				c0.595,0.603,0.589,1.573-0.014,2.168C638.021,166.462,637.632,166.61,637.243,166.61z"/>
		</g>
	</g>
	<g>
		<g>
			<path style="fill:#8E3925;" d="M569.609,167.763c-0.372,0-0.744-0.134-1.039-0.406c-0.622-0.574-0.662-1.544-0.088-2.167
				c3.99-4.327,8.699-5.698,15.271-4.44c0.832,0.159,1.377,0.962,1.218,1.794c-0.159,0.831-0.962,1.376-1.794,1.218
				c-5.56-1.063-9.164-0.047-12.441,3.507C570.435,167.597,570.023,167.763,569.609,167.763z"/>
		</g>
	</g>
	<path style="fill:#8E2B30;" d="M580.709,212.446c0,0,6.161,19.546,23.866,19.244c18.204-0.311,19.039-19.619,19.039-19.619
		L580.709,212.446L580.709,212.446z"/>
	<path style="fill:#D85365;" d="M614.82,229.018c-5.047-6.485-17.612-6.068-27.424-5.226c3.78,4.211,9.348,7.967,17.179,7.899
		c4.366-0.038,7.726-1.038,10.32-2.563C614.869,229.091,614.848,229.054,614.82,229.018z"/>
	<path style="fill:#FFFFFF;" d="M580.796,212.7c0.246,0.691,1.025,2.717,2.469,5.089c0,0-1.21-1.79-0.517-1.573
		c0,0,33.285,3.926,37.861-1.284l1.191-2.846l-41.091,0.359L580.796,212.7z"/>
	<path style="fill:#A3412E;" d="M636.062,113.647c0.068-7.585-25.763-6.186-25.763-6.186c-8.63,0.952-26.151,2.884-42.442,4.682
		c-6.768,0.747-12.677,1.525-15.782,5.864c-2.087,2.916-3.401,6.296-4.186,9.816c-4.556,1.715-8.761,3.394-9.903,4.149
		c-2.779,1.836-11.783,13.231-13.714,15.805c-1.931,2.574-3.97,32.765-0.177,32.7c3.793-0.064,15.537-1.474,16.166,5.429
		c0.26,2.857-4.051-28.339,12.606-36.19c16.658-7.851,18.415-5.718,35.279-7.578C617.446,138.905,635.866,135.532,636.062,113.647z"
		/>
	<path style="fill:#FFB287;" d="M522.098,190.73c-0.967-7.431,4.824-15.173,13.336-13.798c7.398,1.195,5.793,5.977,5.921,13.47
		s2.035,13.536-5.458,13.664C528.404,204.193,523.148,198.801,522.098,190.73z"/>
	<g>
		<path style="opacity:0.6;fill:#9B4534;" d="M629.326,171.501c-5.142,0.088-9.254,4.343-9.167,9.485
			c0.088,5.142,4.343,9.255,9.485,9.167l8.415-12.998C636.608,173.778,633.222,171.434,629.326,171.501z"/>
		<path style="fill:#FFFFFF;stroke:#FFFFFF;stroke-width:0.9147;stroke-miterlimit:10;" d="M619.875,182.329
			c0.076,4.458,3.752,8.01,8.21,7.934c4.458-0.076,8.01-3.752,7.934-8.21c-0.076-4.458-3.752-8.01-8.21-7.934
			C623.351,174.195,619.799,177.871,619.875,182.329z"/>
		<g>
			<path style="fill:#422B27;" d="M626.174,186.252c-2.112,0-3.859-1.718-3.895-3.83c-0.018-1.041,0.371-2.026,1.094-2.775
				c0.723-0.748,1.695-1.17,2.735-1.188h0.001c2.179,0,3.925,1.718,3.961,3.829c0.037,2.148-1.681,3.926-3.829,3.962
				L626.174,186.252z"/>
			<path style="fill:#422B27;" d="M626.176,178.811c1.93,0,3.51,1.547,3.543,3.484c0.033,1.957-1.526,3.571-3.483,3.604
				c-0.021,0.001-0.042,0.001-0.062,0.001c-1.929,0-3.509-1.547-3.543-3.484c-0.033-1.957,1.526-3.571,3.483-3.604
				C626.135,178.811,626.156,178.811,626.176,178.811L626.176,178.811z M626.176,178.106l-0.074,0.001
				c-2.342,0.04-4.215,1.977-4.175,4.32c0.04,2.303,1.944,4.177,4.247,4.177l0.074-0.001c2.342-0.039,4.215-1.977,4.175-4.32
				C630.384,179.98,628.479,178.106,626.176,178.106L626.176,178.106z"/>
		</g>
		<path style="fill:#FFFFFF;" d="M631.271,181.511c0.015,0.864-0.674,1.577-1.538,1.591c-0.864,0.015-1.577-0.674-1.591-1.538
			c-0.015-0.864,0.674-1.577,1.538-1.592C630.544,179.958,631.256,180.647,631.271,181.511z"/>
		<path style="opacity:0.6;fill:#9B4534;" d="M578.448,172.369c5.142-0.088,9.397,4.024,9.485,9.167
			c0.088,5.142-4.024,9.397-9.167,9.485l-8.853-12.704C571.248,174.893,574.553,172.435,578.448,172.369z"/>
		<path style="fill:#FFFFFF;stroke:#FFFFFF;stroke-width:0.9147;stroke-miterlimit:10;" d="M588.263,182.868
			c0.076,4.458-3.476,8.134-7.934,8.21c-4.458,0.076-8.134-3.476-8.21-7.934c-0.076-4.458,3.476-8.134,7.934-8.21
			C584.512,174.858,588.187,178.41,588.263,182.868z"/>
		<g>
			<path style="fill:#422B27;" d="M578.394,187.067c-2.112,0-3.859-1.718-3.895-3.83c-0.018-1.041,0.371-2.026,1.094-2.774
				c0.723-0.748,1.695-1.17,2.735-1.188h0.001c2.179,0,3.925,1.718,3.961,3.83c0.018,1.04-0.371,2.026-1.094,2.774
				c-0.723,0.748-1.695,1.17-2.735,1.188L578.394,187.067z"/>
			<path style="fill:#422B27;" d="M578.396,179.626c1.93,0,3.51,1.547,3.543,3.484c0.033,1.957-1.526,3.571-3.483,3.604
				c-0.021,0.001-0.041,0.001-0.062,0.001c-1.93,0-3.51-1.547-3.543-3.484c-0.033-1.957,1.526-3.571,3.483-3.604
				C578.355,179.626,578.376,179.626,578.396,179.626L578.396,179.626z M578.396,178.921l-0.074,0.001
				c-2.342,0.04-4.215,1.978-4.175,4.32c0.04,2.303,1.945,4.177,4.247,4.177l0.074-0.001c2.342-0.04,4.215-1.979,4.175-4.32
				C582.604,180.795,580.699,178.921,578.396,178.921L578.396,178.921z"/>
		</g>
		<path style="fill:#FFFFFF;" d="M583.517,183.84c-0.015-0.864-0.727-1.553-1.592-1.538c-0.864,0.015-1.553,0.727-1.538,1.592
			c0.015,0.864,0.727,1.553,1.591,1.538C582.843,185.417,583.532,184.704,583.517,183.84z"/>
	</g>
</g>
<g>
	<path style="fill:#FFB287;" d="M604.174,232.114c-17.505,0-23.804-19.345-23.866-19.542l-0.171-0.542l43.916-0.383l-0.019,0.442
		c-0.008,0.197-1.064,19.708-19.452,20.021C604.446,232.113,604.309,232.114,604.174,232.114z M581.302,212.861
		c1.162,3.126,7.712,18.688,23.267,18.409c7.372-0.126,12.744-3.38,15.966-9.672c1.993-3.892,2.506-7.81,2.626-9.102
		L581.302,212.861z"/>
</g>
<path style="fill:#A3412E;" d="M616.717,121.205c-5.02,0.911-15.211,2.762-24.687,4.482c-3.937,0.715-17.222,5.49-18.866,8.158
	c-5.304,8.607,0.16,22.719,0.16,22.719s10.982-8.132,33.939-11.505c18.077-2.656,25.361-9.513,24.672-19.32
	C631.624,121.297,616.717,121.205,616.717,121.205z"/>
<g>
	<path style="fill:#FF4E62;" d="M597.324,316.052c-3.038,0-5.72-2.462-5.72-5.5v-13.333c0-22.832-10.03-34.667-28.78-32.833
		c-3.023,0.296,4.4-2.958,7.438-2.958c18.125,0,32.562,6.828,32.562,35.792v13.333C602.824,313.59,600.362,316.052,597.324,316.052z
		"/>
</g>
<rect x="541.276" y="320.052" style="fill:#FFFFFF;" width="38.084" height="8.755"/>
<path style="fill:#E23757;" d="M676.991,484.624c0-1.453-1.169-2.426-2.598-2.163l-35.221,6.494
	c-1.429,0.263-2.573,1.667-2.543,3.12l0.261,12.622c0.03,1.453,1.223,2.423,2.651,2.158l34.853-6.486
	c1.428-0.266,2.597-1.672,2.597-3.125V484.624z"/>
</svg>
